<svg width="160" height="49" viewBox="0 0 160 49" fill="none" xmlns="http://www.w3.org/2000/svg">
<path fill-rule="evenodd" clip-rule="evenodd" d="M99.2561 37.6703C89.9929 44.5194 76.5193 48.1685 64.8982 48.1685C48.6175 48.1685 34.021 42.1615 22.9052 32.1685C22.0631 31.3826 22.7929 30.3159 23.8596 30.9335C35.8175 37.8949 50.5824 42.0492 65.8526 42.0492C76.1263 42.0492 87.4666 39.9159 97.9087 35.4808C99.4807 34.8633 100.772 36.5475 99.2561 37.6703Z" fill="#BDC7D5"/>
<path fill-rule="evenodd" clip-rule="evenodd" d="M103.13 33.2352C101.951 31.7194 95.2701 32.5053 92.2947 32.8983C91.3964 33.0106 91.228 32.2246 92.0701 31.6632C97.4034 27.9018 106.105 29.0246 107.116 30.2597C108.126 31.4948 106.835 40.2527 101.839 44.4071C101.053 45.0246 100.323 44.6878 100.66 43.8457C101.782 41.0387 104.309 34.8071 103.13 33.2352Z" fill="#BDC7D5"/>
<path fill-rule="evenodd" clip-rule="evenodd" d="M92.4632 5.27721L92.4632 1.62808C92.4632 1.06668 92.8561 0.729834 93.3614 0.729834L109.642 0.729837C110.147 0.729837 110.596 1.12282 110.596 1.62809L110.596 4.71581C110.596 5.22107 110.147 5.89476 109.361 7.01756L100.94 19.0316C104.084 18.9755 107.396 19.4246 110.204 20.9965C110.821 21.3334 110.989 21.8948 111.046 22.4L111.046 26.2737C111.046 26.8351 110.484 27.4526 109.867 27.1158C104.87 24.4772 98.1895 24.1965 92.6877 27.1719C92.1263 27.4526 91.5088 26.8912 91.5088 26.3298L91.5088 22.6246C91.5088 22.0632 91.5088 21.0526 92.1263 20.1544L101.895 6.17546L93.4175 6.17546C92.9123 6.17546 92.4632 5.78247 92.4632 5.27721ZM33.1228 27.9018L28.1825 27.9018C27.7333 27.8456 27.3404 27.5088 27.2842 27.0596L27.2842 1.68422C27.2842 1.17895 27.7333 0.785966 28.2386 0.785967L32.8421 0.785967C33.3474 0.785967 33.6842 1.17895 33.7404 1.62807L33.7404 4.94035L33.8526 4.94035C35.0316 1.74035 37.3333 0.224565 40.3649 0.224565C43.4526 0.224566 45.4175 1.74035 46.7649 4.94035C47.9439 1.74035 50.6947 0.224567 53.614 0.224567C55.6912 0.224568 57.9368 1.06667 59.3404 3.03159C60.9123 5.16492 60.5754 8.25265 60.5754 11.0035L60.5754 27.0597C60.5754 27.5649 60.1263 27.9579 59.6211 27.9579L54.7368 27.9579C54.2316 27.9018 53.8386 27.5088 53.8386 27.0597L53.8386 13.586C53.8386 12.5193 53.9509 9.82456 53.7263 8.81404C53.3333 7.12982 52.2667 6.62456 50.807 6.62456C49.6281 6.62456 48.3368 7.41054 47.8316 8.70176C47.3263 9.99299 47.3825 12.1263 47.3825 13.586L47.3824 27.0597C47.3824 27.5649 46.9333 27.9579 46.4281 27.9579L41.4877 27.9579C40.9824 27.9018 40.5895 27.5088 40.5895 27.0596L40.5895 13.586C40.5895 10.7789 41.0386 6.56842 37.5579 6.56842C34.021 6.56842 34.1333 10.6105 34.1333 13.586L34.1333 27.0596C34.0772 27.5088 33.6842 27.9018 33.1228 27.9018ZM124.632 0.22458C131.986 0.224581 135.972 6.5123 135.972 14.5404C135.972 22.2877 131.593 28.4632 124.632 28.4632C117.446 28.4632 113.516 22.1755 113.516 14.3158C113.46 6.40002 117.446 0.224579 124.632 0.22458ZM124.632 5.44563C120.982 5.44563 120.758 10.4421 120.758 13.5299C120.758 16.6176 120.702 23.2421 124.575 23.2421C128.393 23.2421 128.618 17.9088 128.618 14.6527C128.618 12.5193 128.505 9.93687 127.888 7.91582C127.326 6.11932 126.204 5.44563 124.632 5.44563ZM145.46 27.9018L140.519 27.9018C140.014 27.8456 139.621 27.4527 139.621 27.0035L139.621 1.57195C139.677 1.12282 140.07 0.729842 140.575 0.729842L145.179 0.729843C145.628 0.729843 145.965 1.0667 146.077 1.45968L146.077 5.33336L146.189 5.33336C147.593 1.85266 149.502 0.224584 152.926 0.224585C155.116 0.224585 157.305 1.01054 158.709 3.20002C160 5.22107 160 8.64564 160 11.1158L160 27.1158C159.944 27.5649 159.551 27.9018 159.046 27.9018L154.105 27.9018C153.656 27.8456 153.263 27.5088 153.207 27.1158L153.207 13.3053C153.207 10.4983 153.544 6.45617 150.119 6.45617C148.94 6.45617 147.818 7.24214 147.256 8.47722C146.582 10.0492 146.47 11.5649 146.47 13.3053L146.47 27.0035C146.414 27.5088 145.965 27.9018 145.46 27.9018ZM79.4947 15.7755C79.4947 17.6842 79.5509 19.3123 78.5965 21.0526C77.8105 22.4562 76.5754 23.2983 75.1719 23.2983C73.2631 23.2983 72.1403 21.8386 72.1403 19.7053C72.1403 15.4948 75.9018 14.7088 79.4947 14.7088L79.4947 15.7755ZM84.4912 27.8456C84.1544 28.1263 83.7053 28.1825 83.3123 27.9579C81.6842 26.6105 81.3474 25.9369 80.4491 24.6456C77.7544 27.3965 75.7895 28.2386 72.3088 28.2386C68.1544 28.2386 64.8982 25.6562 64.8982 20.5474C64.8982 16.5053 67.0877 13.8105 70.1754 12.4632C72.8702 11.2842 76.6316 11.0597 79.4947 10.7228L79.4947 10.1053C79.4947 8.92633 79.607 7.52283 78.8772 6.5123C78.2597 5.61405 77.1368 5.22106 76.1263 5.22106C74.2175 5.22106 72.5333 6.17546 72.1403 8.19651C72.0281 8.64563 71.7474 9.09474 71.2982 9.09474L66.5263 8.58948C66.1333 8.4772 65.6842 8.1965 65.7965 7.57896C66.9193 1.74036 72.1404 1.26134e-05 76.8561 1.3438e-05C79.2702 1.386e-05 82.414 0.617555 84.3228 2.47019C86.7368 4.7158 86.5123 7.74739 86.5123 11.0035L86.5123 18.6947C86.5123 20.9965 87.4667 22.007 88.3649 23.2983C88.7017 23.7474 88.7579 24.3088 88.3649 24.5895C87.2982 25.4316 85.5018 27.0035 84.4912 27.8456ZM14.6526 15.7754C14.6526 17.6842 14.7088 19.3123 13.7544 21.0526C12.9684 22.4561 11.7333 23.2983 10.3298 23.2983C8.42105 23.2982 7.29824 21.8386 7.29824 19.7053C7.29824 15.4947 11.0596 14.7088 14.6526 14.7088L14.6526 15.7754ZM19.593 27.8456C19.2561 28.1263 18.807 28.1825 18.414 27.9579C16.786 26.6105 16.4491 25.9368 15.5509 24.6456C12.8561 27.3965 10.8912 28.2386 7.41052 28.2386C3.25613 28.2386 -4.48586e-06 25.6561 -3.59262e-06 20.5474C-2.88587e-06 16.5053 2.18947 13.8105 5.27719 12.4631C7.97192 11.2842 11.7333 11.0597 14.5965 10.7228L14.5965 10.1053C14.5965 8.92632 14.7088 7.52281 13.9789 6.51229C13.3614 5.61404 12.2386 5.22105 11.2281 5.22105C9.3193 5.22105 7.63508 6.17544 7.2421 8.1965C7.12982 8.64562 6.84912 9.09473 6.4 9.09473L1.62807 8.58947C1.23508 8.47719 0.785967 8.19649 0.898248 7.57895C2.02106 1.74035 7.24211 1.26625e-06 11.9579 2.09078e-06C14.3719 2.51287e-06 17.5158 0.617544 19.4246 2.47018C21.8386 4.71579 21.614 7.74738 21.614 11.0035L21.614 18.6947C21.614 20.9965 22.5684 22.007 23.4667 23.2983C23.8035 23.7474 23.8596 24.3088 23.4667 24.5895C22.4 25.4316 20.6035 27.0035 19.593 27.8456Z" fill="#BDC7D5"/>
</svg>
