<svg width="20" height="20" viewBox="0 0 20 20" fill="none" xmlns="http://www.w3.org/2000/svg">
<path d="M14.1218 13.7459C14.0979 13.743 14.0736 13.7384 14.0468 13.733H14.0465L14.0468 12.5816C14.0468 11.938 14.0472 11.2941 14.0454 10.6505C14.044 10.0376 13.6604 9.65692 13.0451 9.65657C10.734 9.65549 8.4222 9.65549 6.11113 9.65657C5.48899 9.65692 5.10184 10.0426 5.10077 10.6634C5.0997 11.2176 5.10006 11.7723 5.10041 12.3266V13.1994L4.85934 13.1998C4.57363 13.2012 4.30434 13.2016 4.03399 13.1951C3.99291 13.1944 3.93006 13.1594 3.91184 13.1273C3.71613 12.7809 3.42756 12.6126 3.0297 12.6126C3.02577 12.6126 3.02184 12.6126 3.01791 12.6126C2.68006 12.6158 2.34184 12.6155 2.00434 12.6144C1.80184 12.6137 1.59899 12.6141 1.39577 12.6141C1.08327 12.6144 0.9672 12.7298 0.966843 13.0394C0.966129 14.8487 0.966486 16.6576 0.966843 18.4669C0.966843 18.7798 1.0822 18.8969 1.39113 18.898C1.73899 18.8991 2.08684 18.8987 2.43434 18.8987L2.89791 18.8983C3.51506 18.8983 3.76756 18.7344 3.99184 18.1741C4.25827 18.2973 4.52327 18.4201 4.78827 18.5434C5.3822 18.8194 5.99649 19.1051 6.60256 19.3769C7.21684 19.6523 7.81184 19.7901 8.38506 19.7901C9.30506 19.7901 10.1704 19.4358 10.9708 18.7287C11.7679 18.0244 12.5679 17.2962 13.3418 16.5919C13.7786 16.1944 14.2154 15.7966 14.654 15.4009C14.9579 15.1262 15.0504 14.7937 14.929 14.4116C14.8029 14.0162 14.5315 13.7926 14.1218 13.7459ZM10.1065 11.4034C10.0947 11.3962 10.0833 11.3891 10.0718 11.3823C9.99827 11.3369 9.92827 11.2944 9.8672 11.243C9.68577 11.0905 9.49541 11.0884 9.28577 11.2384C9.21756 11.2873 9.14863 11.3341 9.07434 11.3841L9.03791 11.4087V10.3537H10.1061V11.4034H10.1065ZM5.77934 10.7094C5.7797 10.4112 5.84827 10.3426 6.14649 10.3426C6.66256 10.3423 7.17863 10.3423 7.70399 10.3423H8.34791V10.9773C8.34791 11.3116 8.34791 11.6459 8.34756 11.9801C8.34756 12.0694 8.34684 12.3059 8.55291 12.3562C8.66791 12.3848 8.8272 12.3605 8.93899 12.2987C9.09827 12.2094 9.24577 12.1051 9.40184 11.9951C9.45863 11.9548 9.51613 11.9144 9.57541 11.8737L9.73649 11.983C9.88863 12.0859 10.0418 12.1894 10.194 12.2951C10.3168 12.3809 10.4529 12.4484 10.6158 12.3612C10.7779 12.2751 10.7997 12.1244 10.7993 11.9751C10.7983 11.6369 10.7986 11.2991 10.7986 10.9616L10.799 10.3423H11.6429C12.099 10.3423 12.5533 10.3419 13.0083 10.3426C13.2983 10.343 13.369 10.4119 13.369 10.6937L13.3693 11.8044C13.3693 12.4834 13.369 13.1623 13.3708 13.8409C13.3708 13.9369 13.3615 13.9837 13.2736 14.0266C12.2401 14.5262 11.2083 15.0305 10.1761 15.5341L9.20077 16.0105C9.19434 16.0134 9.18791 16.0166 9.18113 16.0194C9.40184 15.4394 9.29577 14.9176 8.86506 14.4676C8.62256 14.2144 8.31577 14.0858 7.95363 14.0858C7.9522 14.0858 7.95077 14.0858 7.94899 14.0858C7.7072 14.0873 7.46506 14.0869 7.22327 14.0862C6.86077 14.0862 6.4972 14.0851 6.13399 14.0894C6.02791 14.0862 5.99649 14.0673 5.93899 13.9573C5.77327 13.6401 5.77541 13.3094 5.77791 12.9491C5.78113 12.4634 5.78077 11.978 5.78006 11.493C5.77934 11.2316 5.77899 10.9709 5.77934 10.7094ZM8.55327 15.1562C8.6722 15.3987 8.65327 15.6359 8.4972 15.8601C8.36256 16.0534 8.16327 16.1512 7.9047 16.1512C7.90434 16.1512 7.90399 16.1512 7.90327 16.1512C7.53006 16.1509 7.15649 16.1512 6.78291 16.1516H6.7472C6.6997 16.1512 6.65256 16.1512 6.60434 16.1569C6.40613 16.1783 6.29291 16.2959 6.28541 16.4873C6.27791 16.6791 6.41399 16.8212 6.61684 16.8334C6.7422 16.8405 6.86863 16.8391 6.99113 16.8376C7.04113 16.8373 7.09077 16.8366 7.14077 16.8366L7.5672 16.8376C7.97827 16.8387 8.40363 16.8405 8.82184 16.8323C8.97863 16.8291 9.13541 16.793 9.26363 16.7309C10.4343 16.1659 11.6222 15.5862 12.7704 15.0258L13.7726 14.5369C13.8179 14.5148 13.8636 14.4923 13.9097 14.4719C14.0701 14.4019 14.1843 14.4269 14.2579 14.5484C14.3343 14.6734 14.3158 14.7848 14.2018 14.8884C13.8829 15.1787 13.5636 15.4691 13.2443 15.7587C12.9676 16.0094 12.6911 16.2612 12.4151 16.513C11.7886 17.0841 11.1408 17.6744 10.4936 18.2437C9.44041 19.1691 8.25577 19.3548 6.97077 18.7948C6.34577 18.5219 5.7172 18.2283 5.10934 17.9444C4.78434 17.7926 4.45934 17.6405 4.13327 17.4912C4.03934 17.448 4.00577 17.4162 4.00613 17.3237C4.0097 16.5437 4.0097 15.7644 4.0097 14.9848V13.9823C4.0097 13.9562 4.01399 13.9298 4.01863 13.9001C4.01934 13.8944 4.02041 13.8883 4.02113 13.8826C4.10577 13.8823 4.1897 13.8816 4.27363 13.8805C4.53899 13.8784 4.78934 13.8751 5.04363 13.8923C5.11041 13.8966 5.20863 13.9876 5.25863 14.0701C5.29899 14.1369 5.32041 14.2169 5.34291 14.3012C5.35577 14.3494 5.36863 14.3973 5.38506 14.4434C5.47613 14.6976 5.5697 14.7634 5.84041 14.7637C6.07863 14.7641 6.31577 14.7641 6.55327 14.7637C7.00434 14.7626 7.45541 14.7626 7.90684 14.7655C8.2097 14.7673 8.4272 14.8987 8.55327 15.1562ZM1.65506 18.2201V13.2944C1.78399 13.2944 1.91256 13.2937 2.04077 13.293C2.39399 13.2919 2.7597 13.2898 3.11756 13.2987C3.29827 13.303 3.32577 13.4916 3.32613 13.6037C3.3272 14.0919 3.32684 14.5794 3.32684 15.0676V15.6312V16.303C3.32684 16.8255 3.32684 17.348 3.32649 17.8708C3.32613 18.1444 3.25184 18.2191 2.98077 18.2198C2.66041 18.2201 2.34041 18.2198 2.0122 18.2201H1.65506ZM10.4272 13.8262C10.4318 13.6251 10.5493 13.5076 10.749 13.5023C11.0572 13.4951 11.3629 13.4955 11.6583 13.5033C11.8451 13.5083 11.9758 13.6451 11.9761 13.8359C11.9761 14.0259 11.8493 14.1616 11.6611 14.1737C11.5526 14.1809 11.4422 14.1791 11.3354 14.1773C11.3011 14.1766 11.2668 14.1762 11.2322 14.1759L11.1954 14.1766C11.1504 14.1766 11.1051 14.1773 11.0604 14.1776C11.0158 14.1783 10.9704 14.1791 10.9251 14.1791C10.8665 14.1791 10.8076 14.178 10.7493 14.1748C10.549 14.1634 10.4226 14.0266 10.4272 13.8262ZM2.83041 17.3737C2.83363 17.5541 2.67756 17.7166 2.49649 17.7212C2.49363 17.7212 2.49041 17.7212 2.48756 17.7212C2.30649 17.7212 2.16149 17.5751 2.15541 17.3848C2.15256 17.2926 2.18541 17.2062 2.24791 17.1409C2.3097 17.0766 2.39399 17.0401 2.48506 17.0391C2.48613 17.0391 2.48756 17.0391 2.48863 17.0391C2.67077 17.0387 2.82684 17.1912 2.83041 17.3737Z" fill="#0C1928"/>
<path d="M19.0304 2.33901C19.0247 2.1233 18.9007 1.98901 18.7068 1.98866C18.3825 1.98759 18.0543 1.98973 17.7279 1.99187C17.4107 1.99401 17.094 1.99687 16.7765 1.99509C16.6479 1.99473 16.5468 1.97509 16.4779 1.93723C15.9936 1.67116 15.5043 1.3958 15.0304 1.12973C14.7554 0.975085 14.48 0.820443 14.2047 0.666514C12.8611 -0.0838433 11.5111 0.0947283 10.4061 1.16901C10.1136 1.45294 9.82039 1.73616 9.52539 2.02116L9.19146 2.34401L9.16146 2.32687C9.12217 2.30473 9.08539 2.28366 9.04931 2.26151L6.1611 0.475085C5.99932 0.375085 5.87753 0.3183 5.76574 0.3458C5.6536 0.372943 5.5686 0.482228 5.46753 0.649728L3.5761 3.79009C3.36217 4.14509 3.3911 4.26937 3.73896 4.48937L4.99289 5.28259C6.82003 6.4383 8.64682 7.59401 10.474 8.74937C10.5475 8.7958 10.6261 8.83723 10.6957 8.87366C10.7586 8.90652 10.819 8.92294 10.8761 8.92294C10.9768 8.92294 11.0675 8.87187 11.1436 8.77116C11.2136 8.67794 11.2775 8.58687 11.3336 8.50009C11.5 8.24152 11.6661 7.98294 11.8322 7.72402C11.975 7.50116 12.1182 7.27794 12.2618 7.05544C12.2811 7.02509 12.3032 6.99687 12.3261 6.96759L12.3361 6.95473L12.4786 7.0408C12.5811 7.10223 12.6797 7.16187 12.7775 7.22187C13.5682 7.7058 14.3661 7.69723 15.1511 7.19937C15.365 7.06366 15.58 6.9283 15.7997 6.79009L16.1022 6.59937C16.359 7.05402 16.7832 7.10544 17.1686 7.09616C17.4786 7.08794 17.7947 7.09044 18.0993 7.09187C18.2457 7.09259 18.3957 7.09366 18.5386 7.0933C18.9254 7.09294 19.0318 6.98866 19.0322 6.60866V2.99723L19.0329 2.80723C19.0336 2.65116 19.0343 2.49509 19.0304 2.33901ZM16.6718 4.01544C16.6718 3.66651 16.6715 3.31759 16.6729 2.96866C16.674 2.74687 16.7572 2.66366 16.9804 2.66294C17.169 2.66223 17.3575 2.66187 17.5475 2.66187C17.684 2.66187 17.8218 2.66187 17.96 2.66223H18.3425V6.4008C18.2122 6.4008 18.0825 6.40152 17.9536 6.40223C17.5843 6.40402 17.2354 6.40616 16.879 6.39544C16.7075 6.39044 16.6722 6.23866 16.6725 6.11223C16.6736 5.72044 16.6732 5.32901 16.6732 4.93759L16.6718 4.01544ZM4.24467 4.00116L4.46324 3.64009C4.58646 3.80616 4.62967 3.98794 4.60324 4.22794L4.24467 4.00116ZM15.9925 5.71651C15.9932 5.83009 15.9629 5.88687 15.8718 5.94223C15.6379 6.08401 15.404 6.23294 15.1775 6.37651C15.0329 6.4683 14.8886 6.56009 14.7432 6.6508C14.2229 6.97509 13.6932 6.97901 13.17 6.66259C12.2679 6.11616 11.3657 5.56973 10.465 5.0208C10.2625 4.89723 10.1768 4.7233 10.2175 4.51759C10.2579 4.3133 10.3886 4.1833 10.5757 4.16044C10.5925 4.1583 10.61 4.15759 10.6282 4.15759C10.7311 4.15759 10.8515 4.19009 10.9432 4.24473C11.3918 4.51116 11.8425 4.7908 12.279 5.06116C12.4422 5.16223 12.6054 5.2633 12.769 5.36437C12.9379 5.46866 13.0754 5.50473 13.1875 5.47687C13.2647 5.45723 13.3265 5.40687 13.3722 5.32759C13.4818 5.13616 13.4018 4.95509 13.1347 4.78937C12.0515 4.11901 10.9682 3.44901 9.88539 2.7783C9.85789 2.76116 9.83074 2.74294 9.7986 2.72116L9.78753 2.71366C9.91789 2.58794 10.0454 2.46187 10.1722 2.33651C10.4857 2.02651 10.7825 1.7333 11.1047 1.45973C11.8465 0.829371 12.6765 0.701871 13.5068 1.09151C14.1297 1.38366 14.7332 1.7283 15.3168 2.06187C15.5615 2.20151 15.8043 2.34009 16.045 2.47294C16.0386 2.55973 16.0315 2.6433 16.025 2.72473C16.009 2.91151 15.9943 3.08794 15.9929 3.26437C15.9861 3.98509 15.9865 4.76473 15.9925 5.71651ZM9.59039 4.96866C9.6736 5.2358 9.8386 5.44044 10.0947 5.59401C10.4879 5.83044 10.8797 6.06901 11.2715 6.30759L11.6115 6.51473C11.6475 6.53651 11.6832 6.55973 11.7225 6.58509L11.744 6.59901L11.679 6.7008C11.5907 6.83866 11.5079 6.96902 11.4168 7.09687C11.405 7.11402 11.3497 7.13223 11.3282 7.12651C10.7618 6.9583 10.2557 7.08116 9.7861 7.50259L5.22146 4.61973C5.39646 4.00616 5.2686 3.46544 4.84182 3.01151L5.3661 2.14044C5.9736 2.30509 6.48753 2.17901 6.93574 1.75544L10.0147 3.65973C9.57932 4.03616 9.43682 4.47651 9.59039 4.96866ZM5.74217 1.52187L5.96003 1.15223L6.31789 1.37294C6.1536 1.49723 5.9761 1.5433 5.74217 1.52187ZM10.9986 7.75437L10.7647 8.11687L10.4 7.88973C10.5936 7.75973 10.7815 7.71616 10.9986 7.75437ZM7.13253 5.1983C7.3561 5.42223 7.66182 5.54544 7.99396 5.54544C7.99574 5.54544 7.99753 5.54544 7.99967 5.54544C8.68932 5.54223 9.2086 5.01366 9.20717 4.31509C9.20646 3.9758 9.0811 3.66544 8.85467 3.44044C8.63181 3.21901 8.32681 3.09723 7.99539 3.09723C7.9936 3.09723 7.99146 3.09723 7.98932 3.09723C7.29824 3.10044 6.77932 3.62866 6.78217 4.32544C6.7836 4.6633 6.90824 4.9733 7.13253 5.1983ZM7.46181 4.32651C7.45932 4.01044 7.68074 3.7783 7.98824 3.77437C7.99074 3.77437 7.99324 3.77437 7.9961 3.77437C8.13753 3.77437 8.26932 3.82723 8.36789 3.92366C8.47146 4.02437 8.52931 4.1633 8.5311 4.31437C8.53431 4.62544 8.3061 4.8633 8.00039 4.86723C7.85717 4.86759 7.72039 4.81723 7.62182 4.72044C7.51967 4.6208 7.46289 4.4808 7.46181 4.32651ZM17.2697 5.80687C17.2047 5.74151 17.1682 5.65259 17.1697 5.5633C17.1725 5.38437 17.3193 5.23651 17.4972 5.2333C17.5907 5.23616 17.6829 5.2658 17.7475 5.32901C17.8093 5.38973 17.8432 5.47259 17.8432 5.56223C17.8429 5.75223 17.6954 5.9033 17.5079 5.90616C17.5065 5.90616 17.505 5.90616 17.5036 5.90616C17.4179 5.90651 17.3329 5.87044 17.2697 5.80687Z" fill="#0C1928"/>
</svg>
