<svg width="20" height="20" viewBox="0 0 20 20" fill="none" xmlns="http://www.w3.org/2000/svg">
<path d="M14.2975 10.2532C13.8907 10.2524 13.4839 10.2521 13.0767 10.2521C12.6696 10.2521 12.2628 10.2524 11.856 10.2532C11.0525 10.2546 10.5503 10.7553 10.5457 11.5589C10.5417 12.171 10.5421 12.7832 10.5457 13.3949C10.5496 14.1974 11.0489 14.6996 11.8489 14.706C12.1232 14.7078 12.3971 14.7071 12.6721 14.7071L13.06 14.7064L13.4446 14.7067C13.726 14.7067 14.0082 14.7071 14.29 14.706C15.1135 14.7021 15.6071 14.211 15.61 13.3928C15.6128 12.7807 15.6132 12.1685 15.61 11.5567C15.606 10.7546 15.1032 10.2549 14.2975 10.2532ZM14.3164 13.9328C14.1453 13.9339 13.9735 13.9342 13.8021 13.9342C13.6796 13.9342 13.5571 13.9339 13.435 13.9339L13.0682 13.9335L12.7067 13.9339C12.4175 13.9342 12.1282 13.9349 11.8378 13.9328C11.49 13.9307 11.3203 13.7632 11.3192 13.4203C11.3164 12.7957 11.3167 12.1714 11.3189 11.5471C11.32 11.201 11.4925 11.0249 11.8314 11.0239C12.6635 11.021 13.4964 11.021 14.3285 11.0239C14.6607 11.0253 14.8367 11.1999 14.8385 11.5299C14.8417 12.161 14.8417 12.791 14.8389 13.4221C14.8367 13.7639 14.666 13.931 14.3164 13.9328ZM19.5382 5.75173C18.9275 4.66959 18.3132 3.59459 17.7025 2.51602L16.7167 0.783876C16.6203 0.612448 16.4882 0.533876 16.3025 0.533876L16.1346 0.530305L13.4453 0.533876C10.2632 0.533876 7.0846 0.533876 3.90246 0.526733C3.89889 0.526733 3.89889 0.526733 3.89889 0.526733C3.56674 0.526733 3.3846 0.633876 3.22746 0.919591C2.57746 2.08388 1.90603 3.26245 1.2596 4.40173L0.559599 5.62673C0.534599 5.67316 0.509599 5.71959 0.481028 5.76959L0.438171 5.84816C0.423885 5.87316 0.413171 5.90173 0.406028 5.93031C0.395314 5.95888 0.391742 5.98745 0.388171 6.01602C0.387814 6.01888 0.388171 6.02316 0.387814 6.02602C0.387814 6.02638 0.387099 6.02602 0.387099 6.02638C0.381742 6.04709 0.382456 6.07888 0.384956 6.11388C0.384956 6.11602 0.384599 6.11745 0.384599 6.11959L0.386028 6.13066C0.402099 6.29959 0.479599 6.56638 0.479599 6.56638L0.480314 6.56495C0.539956 6.81138 0.622814 7.08031 0.773528 7.33031C1.0521 7.79816 1.39853 8.13031 1.8271 8.34459C2.03424 8.45173 2.0771 8.59459 2.0771 8.77316C2.07353 10.9124 2.07353 14.466 2.07353 17.1589V18.9482C2.07353 19.341 2.20567 19.4732 2.6021 19.4732H17.4271C17.8235 19.4732 17.9557 19.341 17.9557 18.9446V17.5089C17.9557 14.766 17.9557 10.9803 17.9521 8.73388C17.9521 8.55888 18.0128 8.45531 18.1735 8.36959C19.0807 7.86959 19.5664 7.08745 19.6164 6.04102C19.6203 5.95531 19.5882 5.84459 19.5382 5.75173ZM1.67031 5.24816C1.69174 5.20888 1.7096 5.17316 1.72746 5.13745L2.24531 4.23031C2.75603 3.32673 3.27031 2.42316 3.78103 1.51959C3.86317 1.36959 3.96674 1.30888 4.13817 1.30888C7.3846 1.31245 10.631 1.31602 13.8775 1.31245H15.8917C16.006 1.31245 16.1346 1.31245 16.2239 1.46959C16.7632 2.43031 17.3096 3.38745 17.8525 4.34459L18.3489 5.21959C18.3596 5.23745 18.3667 5.25173 18.3775 5.27673L18.4525 5.43745H1.57389L1.67031 5.24816ZM14.1846 6.23388L14.181 6.32673C14.1489 6.98745 13.4239 7.90531 12.3239 7.90531C12.3203 7.90531 12.3167 7.90531 12.3167 7.90531C11.2132 7.90173 10.4953 6.98388 10.4667 6.32673L10.4632 6.23388H14.1846ZM9.56674 6.23388L9.56317 6.32316C9.5596 6.90888 8.90246 7.81602 7.88817 7.89816C7.8346 7.90173 7.78103 7.90173 7.73103 7.90173C6.79531 7.90173 5.96674 7.22673 5.84531 6.33388L5.83103 6.23388H9.56674ZM1.23103 6.34459L1.2096 6.24102H4.99889L4.97746 6.34459C4.79889 7.26245 4.02746 7.90531 3.10246 7.90531H3.09889C2.18103 7.90531 1.41317 7.26602 1.23103 6.34459ZM8.39889 18.4803C8.39889 18.5089 8.39889 18.5375 8.39532 18.566L8.3846 18.6875H5.48817V11.4339C5.48817 10.816 5.77746 10.5267 6.39531 10.5267H6.75603C7.03817 10.5267 7.32389 10.5232 7.60603 10.5267C8.08103 10.5339 8.39889 10.8517 8.39889 11.3196C8.40246 12.6874 8.40246 15.5339 8.40246 17.4232L8.39889 18.4803ZM17.1739 18.6803H9.17031V11.3696C9.16674 10.6839 8.87389 10.1982 8.29531 9.92316C8.11317 9.83745 7.88103 9.78745 7.56317 9.76245C7.2846 9.74459 6.99889 9.74816 6.72031 9.75173C6.60603 9.75531 6.49174 9.75531 6.37746 9.75531C5.35246 9.75888 4.71317 10.3946 4.7096 11.416C4.70603 12.5803 4.70603 14.941 4.70603 16.7303V18.6839H2.85603V8.68031L2.94889 8.68388C3.94174 8.70888 4.74174 8.30888 5.33103 7.50531L5.40603 7.40531L5.47746 7.50888C5.97746 8.23388 6.8096 8.66959 7.70246 8.67673C8.6096 8.67673 9.42389 8.25888 9.95246 7.51245L10.0239 7.41245L10.0989 7.51245C10.6775 8.28388 11.4239 8.67673 12.3203 8.67673C12.3239 8.67673 12.3275 8.67673 12.3275 8.67673C13.2417 8.67316 13.9703 8.28745 14.5525 7.49816L14.6239 7.40173L14.6989 7.49816C14.9953 7.90888 15.3382 8.20531 15.7453 8.40531C16.1382 8.60173 16.5846 8.69459 17.0846 8.68388H17.1739V18.6803ZM18.806 6.34816C18.6275 7.26245 17.8417 7.90531 16.9239 7.90531C16.8917 7.90531 16.8596 7.90531 16.8275 7.90173C15.9346 7.85888 15.1489 7.15531 15.0703 6.33745L15.0596 6.24102H18.8275L18.806 6.34816Z" fill="#0C1928"/>
</svg>
