<svg width="12" height="12" viewBox="0 0 12 12" fill="none" xmlns="http://www.w3.org/2000/svg">
<g opacity="0.8">
<path d="M11.4247 6.5663C11.3143 6.4373 11.2044 6.30766 11.0921 6.17609C11.1238 6.13816 11.1483 6.10816 11.1729 6.07859C12.1893 4.86873 12.2803 3.2408 11.3836 1.94137C10.9359 1.29316 10.3638 0.830513 9.69713 0.516584C8.6572 0.0372272 7.67984 -0.0124871 7.04641 0.0292986C7.0342 0.0320843 7.0222 0.0342272 7.00955 0.0352986C6.28741 0.0927272 5.60448 0.28687 4.9687 0.634442C4.14777 1.08358 3.50255 1.7048 3.12755 2.57587C3.0352 2.79037 2.97648 3.01901 2.89355 3.26758C2.95463 3.25301 2.97605 3.24916 2.99663 3.24273C3.94955 2.9408 4.92027 2.8553 5.90941 3.00187C7.11648 3.1808 8.18898 3.65459 9.09005 4.48644C9.82398 5.16401 10.3196 5.98408 10.5151 6.97066C10.5631 7.2128 10.5804 7.46094 10.6132 7.71551C10.9436 7.71551 11.2775 7.71401 11.6109 7.71616C11.7693 7.71701 11.8923 7.6598 11.9621 7.51409C12.0348 7.36237 11.9945 7.22823 11.8882 7.10608C11.7326 6.92694 11.579 6.74609 11.4247 6.5663Z" fill="#0A66C2"/>
<path d="M6.1657 3.75834C4.80928 3.47505 3.50385 3.64498 2.2837 4.3157C1.3147 4.84841 0.589776 5.60977 0.234919 6.6782C0.194634 6.79948 0.167205 6.92505 0.143205 7.05191C0.121776 7.1342 0.0958479 7.2527 0.0774193 7.3997C0.0630622 7.51305 0.0534193 7.64334 0.0534193 7.78734C0.0534193 7.92298 0.062205 8.07062 0.0840622 8.2277C0.0842764 8.22984 0.084705 8.23241 0.0849193 8.23477C0.0909193 8.27227 0.096705 8.30955 0.102919 8.34705C0.103134 8.34962 0.103776 8.35241 0.104419 8.35477C0.119634 8.4482 0.136776 8.54141 0.158634 8.63334C0.303919 9.23934 0.582491 9.7787 0.987919 10.2525C1.01042 10.2786 1.03035 10.3067 1.05306 10.3361C0.864919 10.5518 0.677419 10.7646 0.492062 10.9781C0.431634 11.0473 0.371205 11.1167 0.311205 11.1863L0.307133 11.1911C0.286776 11.2142 0.266634 11.2371 0.246705 11.2605C0.234491 11.2744 0.222705 11.2892 0.210919 11.3038L0.0223479 11.5253V11.5256C-0.00315211 11.5556 -0.00765211 11.5984 0.0118479 11.6331L0.0664907 11.7311L0.080205 11.7553C0.172776 11.9121 0.317634 11.9646 0.511991 11.9638C0.547776 11.9638 0.583776 11.9636 0.619562 11.9636C2.17742 11.9599 3.73613 11.9946 5.2927 11.9513C7.07063 11.9025 8.46263 11.0908 9.39327 9.57662C10.1776 8.3012 10.0503 6.7577 9.13527 5.56648C8.37927 4.58334 7.36399 4.00862 6.1657 3.75834ZM2.8552 8.41455C2.46692 8.41541 2.15085 8.09762 2.15363 7.7087C2.1562 7.32555 2.47228 7.0142 2.85628 7.01548C3.23963 7.01698 3.55249 7.33177 3.55249 7.71555C3.55249 8.09848 3.23835 8.41348 2.8552 8.41455ZM4.97556 8.41455C4.59177 8.41434 4.27742 8.10041 4.27635 7.71727C4.27549 7.33327 4.58749 7.01784 4.97042 7.01527C5.35463 7.01312 5.67177 7.32341 5.67542 7.70655C5.67949 8.09505 5.36342 8.41498 4.97556 8.41455ZM7.10106 8.41455C6.71277 8.41541 6.3967 8.0972 6.3997 7.70805C6.40249 7.32491 6.71856 7.01398 7.10277 7.01548C7.48592 7.01741 7.79877 7.3322 7.79856 7.71577C7.79813 8.09891 7.48399 8.4137 7.10106 8.41455Z" fill="#0A66C2"/>
</g>
</svg>
