<svg width="160" height="36" viewBox="0 0 160 36" fill="none" xmlns="http://www.w3.org/2000/svg">
<path d="M138.866 20.9707H157.22C157.165 18.5202 156.403 16.3367 154.77 14.3261C153.191 12.3075 150.953 11.3336 148.015 11.3336C145.235 11.3336 143.06 12.3154 141.426 14.2789C139.84 16.2896 138.968 18.5202 138.866 20.9707ZM135.976 22.2274C135.976 18.5202 137.122 15.4178 139.408 12.8573C141.693 10.2969 144.583 8.99306 148.07 8.99306C151.777 8.99306 154.66 10.2497 156.788 12.8102C158.908 15.3707 160 18.5281 160 22.4002V23.1071H138.866C138.976 25.9974 139.958 28.338 141.756 30.2465C143.555 32.1551 145.895 33.1369 148.785 33.1369C152.162 33.1369 154.887 31.9902 157.063 29.6496L158.476 31.4482C155.861 34.1736 152.539 35.5324 148.62 35.5324C144.913 35.5324 141.921 34.2757 139.581 31.8252C137.232 29.3669 135.976 26.1466 135.976 22.2274ZM48.7002 22.2274C48.7002 24.081 49.2421 25.5497 50.2788 26.6964C51.3155 27.8431 52.6742 28.3851 54.2527 28.3851C55.1245 28.3851 55.9962 28.1652 56.923 27.7332C57.8497 27.2934 58.5565 26.7514 59.0984 26.0995V18.3631C58.5565 17.7112 57.8418 17.1614 56.923 16.7295C55.9962 16.2975 55.1245 16.1325 54.2527 16.1325C52.6192 16.1325 51.3076 16.6745 50.2788 17.8212C49.1872 18.9051 48.7002 20.3738 48.7002 22.2274ZM113.86 31.4875L115.494 29.469C116.365 30.5607 117.512 31.4325 118.926 32.1394C120.339 32.8463 121.918 33.1762 123.661 33.1762C125.735 33.1762 127.368 32.6892 128.562 31.7624C129.764 30.7806 130.415 29.5868 130.415 28.0552C130.415 26.7985 129.874 25.8246 128.782 25.0549C127.572 24.2616 126.222 23.7118 124.808 23.4212C123.284 23.0364 121.706 22.6594 120.127 22.2195C118.549 21.7797 117.237 21.0728 116.098 20.0439C115.007 19.0072 114.465 17.6484 114.465 16.0147C114.465 13.9962 115.282 12.3625 116.915 11.0037C118.549 9.64496 120.732 8.98521 123.504 8.98521C127.321 8.98521 130.313 10.2419 132.544 12.6924L131.02 14.601C129.387 12.3704 126.881 11.2786 123.504 11.2786C121.596 11.2786 120.072 11.7185 118.926 12.5824C117.779 13.4542 117.237 14.546 117.237 15.9048C117.237 17.0515 117.779 17.9783 118.871 18.6302C119.962 19.2821 121.266 19.7769 122.845 20.1539C124.368 20.5387 125.947 20.9157 127.478 21.3556C129.002 21.7876 130.368 22.6123 131.452 23.6961C132.544 24.7879 133.086 26.2566 133.086 28.0552C133.086 30.2308 132.269 31.9745 130.635 33.3961C129.002 34.8098 126.661 35.4696 123.661 35.4696C119.468 35.5167 116.255 34.1579 113.86 31.4875ZM93.048 27.1284C93.048 28.927 93.6998 30.4507 94.9564 31.5975C96.213 32.7442 97.9015 33.3411 99.967 33.3411C103.289 33.3411 105.849 32.1944 107.593 29.8538V24.348C105.849 22.0075 103.289 20.8608 99.967 20.8608C97.8937 20.8608 96.2601 21.4577 94.9564 22.6594C93.7077 23.8061 93.048 25.3298 93.048 27.1284ZM3.86398 12.6924C6.47923 10.2419 9.74633 8.98521 13.7203 8.98521C16.2256 8.98521 18.3539 9.41719 20.0974 10.344C21.8409 11.2708 23.1446 12.3625 24.0163 13.6663L18.8958 18.5124C17.8041 16.9337 16.2256 16.1168 14.1051 16.1168C12.4166 16.1168 11.0029 16.6588 9.85628 17.7505C8.77248 18.8501 8.16775 20.3188 8.16775 22.2274C8.16775 24.136 8.70965 25.6047 9.85628 26.6964C10.9479 27.7882 12.3616 28.3851 14.1051 28.3851C16.1235 28.3851 17.702 27.5683 18.8958 25.9346L24.1263 30.8356C23.2545 32.1394 21.9508 33.2311 20.2073 34.1579C18.4638 35.0847 16.3434 35.5167 13.8302 35.5167C9.85628 35.5167 6.58918 34.26 3.97393 31.8095C1.3037 29.3119 0 26.1466 0 22.2274C0 18.3081 1.3037 15.1429 3.86398 12.6924ZM90.2207 27.0734C90.2207 24.458 91.0924 22.3845 92.8359 20.9157C94.5794 19.447 96.6528 18.6851 99.0481 18.6851C102.59 18.6851 105.472 19.8868 107.656 22.2824V17.1614C107.656 15.3628 107.004 13.9491 105.747 12.9123C104.491 11.8756 102.857 11.3336 100.902 11.3336C97.7445 11.3336 95.1292 12.5903 92.9459 15.0408L91.4223 13.1322C94.0375 10.2969 97.3046 8.8831 101.176 8.8831C103.902 8.8831 106.132 9.535 107.821 10.9566C109.509 12.3154 110.381 14.3339 110.381 17.0593V34.8727H107.656V31.8802C105.48 34.2757 102.59 35.4774 99.0481 35.5324C96.7078 35.5324 94.6344 34.7706 92.8909 33.2468C91.0924 31.7074 90.2207 29.6889 90.2207 27.0734ZM67.1232 28.5422C67.885 29.7988 69.0316 30.8827 70.6102 31.7545C72.1338 32.6264 73.7674 33.0583 75.4559 33.0583C78.2361 33.0583 80.3566 32.0216 81.9351 30.0109C83.5137 27.9924 84.2755 25.4319 84.2755 22.2745C84.2755 19.1171 83.5137 16.5017 81.9351 14.4831C80.3566 12.4646 78.2282 11.4357 75.4559 11.4357C73.7674 11.4357 72.1888 11.8756 70.6102 12.7945C69.0316 13.7213 67.885 14.813 67.1232 16.0618V28.5422ZM43.5797 12.5824C45.653 10.1869 48.3154 8.98521 51.5904 8.98521C54.6376 8.98521 57.1429 10.1869 59.0513 12.6374V0H67.062V34.8648H59.0513V31.9195C56.9779 34.26 54.4726 35.4617 51.5904 35.5167C48.3782 35.5167 45.708 34.315 43.5797 31.9745C42.488 30.7178 41.6712 29.2491 41.1294 27.5054L46.5248 22.1096V21.6697L41.3493 16.4388C41.8912 14.978 42.598 13.6742 43.5797 12.5824ZM64.453 34.8648V0H67.1782V13.7291C69.4086 10.5718 72.3537 9.04804 75.9507 8.99306C79.3277 8.99306 82.0529 10.1948 84.1184 12.6453C86.1918 15.0958 87.2206 18.3081 87.2206 22.2902C87.2206 26.2723 86.1839 29.4847 84.1184 31.9352C82.0451 34.3307 79.3277 35.5324 75.9507 35.5324C74.1522 35.5324 72.4637 35.0926 70.9401 34.2286C69.4557 33.3882 68.1756 32.2336 67.1782 30.8513V34.8805L64.453 34.8648Z" fill="#BDC7D5"/>
<path d="M31.595 30.7806L29.3646 33.1211L18.5737 22.1174V21.6854L29.4117 10.6267L31.6421 12.9673L34.0375 10.6267L44.9304 21.6854V22.1253L34.0453 33.1211L31.595 30.7806ZM31.7599 16.7216L26.5294 21.8975L31.8149 27.0184L36.8255 21.8975L31.7599 16.7216Z" fill="#BDC7D5"/>
</svg>
