<svg width="21" height="20" viewBox="0 0 21 20" fill="none" xmlns="http://www.w3.org/2000/svg">
<path fill-rule="evenodd" clip-rule="evenodd" d="M10.4968 1.0657C12.1644 0.0114026 14.3796 -0.279863 16.2934 0.333435C20.4562 1.67592 21.7485 6.21412 20.5926 9.8252C18.8091 15.4967 11.1921 19.7272 10.8691 19.9046C10.7542 19.9682 10.627 20 10.4999 20C10.3727 20 10.2465 19.9692 10.1317 19.9067C9.81067 19.7313 2.24906 15.5633 0.406086 9.82622C0.40506 9.82622 0.40506 9.8252 0.40506 9.8252C-0.751796 6.2131 0.536335 1.67387 4.69507 0.333435C6.64778 -0.298323 8.77586 -0.0203905 10.4968 1.0657ZM5.16684 1.79797C1.8019 2.88303 0.956824 6.50231 1.87062 9.35651C3.30848 13.8301 8.98918 17.4473 10.4988 18.3427C12.0136 17.4381 17.7353 13.7809 19.1271 9.36061C20.0409 6.50334 19.1927 2.88406 15.8226 1.79797C14.1899 1.27389 12.2854 1.59285 10.9706 2.61023C10.6958 2.8215 10.3142 2.8256 10.0373 2.61638C8.64459 1.56926 6.82521 1.26261 5.16684 1.79797ZM14.8381 3.83467C16.2359 4.28695 17.2154 5.52483 17.3354 6.98834C17.3692 7.4119 17.0544 7.78316 16.6308 7.81701C16.6093 7.81906 16.5887 7.82008 16.5672 7.82008C16.1703 7.82008 15.8339 7.51549 15.8011 7.11346C15.7334 6.27043 15.1693 5.55867 14.3663 5.2992C13.9612 5.16793 13.7397 4.73411 13.8699 4.33105C14.0022 3.92697 14.4319 3.7075 14.8381 3.83467Z" fill="black"/>
</svg>
