<svg width="16" height="15" viewBox="0 0 16 15" fill="none" xmlns="http://www.w3.org/2000/svg">
<path opacity="0.1" d="M12.7288 9.33095C12.5243 9.5291 12.4304 9.81566 12.477 10.0967L13.1788 13.9806C13.238 14.3098 13.099 14.643 12.8235 14.8332C12.5536 15.0306 12.1944 15.0543 11.8999 14.8964L8.40357 13.0728C8.28199 13.0081 8.147 12.9733 8.00885 12.9694H7.79492C7.72072 12.9804 7.64809 13.0041 7.58178 13.0404L4.08464 14.8727C3.91176 14.9595 3.71598 14.9903 3.52415 14.9595C3.05682 14.8711 2.745 14.4259 2.82157 13.9562L3.52415 10.0722C3.57073 9.78882 3.47679 9.50068 3.27233 9.29938L0.421731 6.53641C0.183326 6.3051 0.100437 5.95776 0.209377 5.64436C0.315159 5.33175 0.585141 5.10361 0.911172 5.05229L4.83459 4.48312C5.13299 4.45233 5.39508 4.27077 5.52928 4.00236L7.25812 0.457864C7.29917 0.378922 7.35206 0.306295 7.416 0.24472L7.48705 0.189461C7.52415 0.148411 7.56678 0.114466 7.61414 0.0868363L7.70019 0.0552595L7.83439 0H8.16674C8.46356 0.0307874 8.72486 0.208407 8.86143 0.473653L10.6132 4.00236C10.7395 4.2605 10.985 4.4397 11.2684 4.48312L15.1918 5.05229C15.5234 5.09966 15.8004 5.32859 15.9102 5.64436C16.0136 5.96092 15.9244 6.30826 15.6812 6.53641L12.7288 9.33095Z" fill="#0C1928"/>
<path d="M7.88843 12.9609C7.73551 12.9656 7.58653 13.0067 7.45252 13.0802L3.94794 14.9109C3.51913 15.1155 3.00597 14.9567 2.76555 14.5467C2.67648 14.3792 2.64416 14.1872 2.67411 13.9991L3.37409 10.1078C3.42138 9.82489 3.32679 9.53728 3.12106 9.33817L0.258898 6.56722C-0.0808406 6.23458 -0.0871467 5.6886 0.245497 5.34806C0.250227 5.34332 0.254168 5.33937 0.258898 5.33542C0.394478 5.2011 0.569471 5.1126 0.757864 5.08495L4.70939 4.50342C4.99553 4.46708 5.24383 4.28851 5.36995 4.02935L7.08756 0.444567C7.25073 0.155383 7.56367 -0.0168639 7.89474 0.00130885C7.88843 0.235975 7.88843 12.8013 7.88843 12.9609Z" fill="#FFB23E"/>
</svg>
