<svg width="60" height="60" viewBox="0 0 60 60" fill="none" xmlns="http://www.w3.org/2000/svg">
<g clip-path="url(#clip0_1_496)">
<path d="M59.7712 38.6727C58.838 32.8532 55.6066 28.447 50.1669 25.5766C49.036 24.9798 47.7476 24.5164 46.1196 24.1227L46.1201 17.3984C46.1201 13.3018 46.1207 9.20517 46.1196 5.10856C46.1196 2.36624 44.4905 0.729099 41.7621 0.729099H19.8873C17.7685 0.729099 15.6503 0.729099 13.5321 0.728027H10.8867C8.63727 0.728027 6.3862 0.729099 4.13674 0.730706C3.55442 0.731777 3.01442 0.822849 2.53281 1.00017C2.50924 1.00821 2.48513 1.01838 2.43424 1.03928C1.72442 1.3216 1.14317 1.7941 0.709774 2.44231C0.686738 2.47499 0.66531 2.50713 0.643881 2.54088C0.504595 2.75946 0.381917 2.99785 0.277988 3.25124C0.0937026 3.71463 0.000488281 4.20481 0.000488281 4.70892V18.5609C0.000488281 18.8453 0.0926311 19.1228 0.269953 19.357L0.302095 19.4003C0.43656 19.5595 0.60531 19.6837 0.789595 19.7625L0.814238 19.7855H0.844774C1.06013 19.868 1.3012 19.8889 1.52995 19.8509C2.15888 19.7427 2.61585 19.2005 2.61585 18.5614V6.26356C2.61585 6.21588 2.61263 6.17035 2.60888 6.13071V5.00731C2.60888 3.86303 3.0696 3.39588 4.19835 3.39481C6.4146 3.39267 8.63085 3.39267 10.8482 3.39321H14.5966V7.03231C14.5971 10.6516 14.5976 14.2703 14.5917 17.8896V17.9877C14.5917 18.5378 14.6458 19.1539 15.2951 19.5027C15.9332 19.8461 16.4833 19.5659 16.9483 19.2766C17.8221 18.7318 18.7001 18.1923 19.5776 17.6528C20.6153 17.0153 21.653 16.3778 22.6853 15.7302C22.9703 15.5518 23.1342 15.5507 23.4176 15.7291C24.8726 16.643 26.3608 17.5575 27.7998 18.442L29.2987 19.365C29.4878 19.4845 29.6839 19.6077 29.9378 19.6409C30.3621 19.6961 30.7317 19.6002 31.0044 19.3618C31.3269 19.0789 31.4978 18.6155 31.4978 18.022C31.4994 15.6696 31.5 13.3173 31.5 10.9645C31.5005 8.61213 31.501 6.25928 31.5026 3.90696C31.5026 3.8566 31.4994 3.80571 31.4957 3.75428C31.4866 3.6241 31.4785 3.50892 31.5278 3.39374H32.0105C32.9592 3.39374 33.9085 3.39696 34.8573 3.40017C37.1153 3.40713 39.4526 3.41571 41.7519 3.37821C42.3525 3.37338 42.7773 3.49981 43.0612 3.77999C43.3537 4.06874 43.4946 4.51821 43.4919 5.1541C43.4764 9.17303 43.4769 13.2589 43.478 17.2103C43.4785 19.2193 43.4791 21.2282 43.4775 23.2371C43.4775 23.2891 43.4812 23.3421 43.485 23.3952C43.4941 23.5173 43.5016 23.625 43.4603 23.7209C37.6869 23.4884 32.8719 25.4378 29.1444 29.5061C25.4378 33.5502 23.9287 38.5007 24.6562 44.2221H17.0485C12.7773 44.2221 8.50656 44.2221 4.2337 44.2205C3.09585 44.2205 2.60995 43.7266 2.60835 42.5695C2.6062 41.2564 2.6062 39.9445 2.60674 38.6325V37.3195V35.7461C2.60674 34.1737 2.6062 32.602 2.60781 31.042C2.61263 30.9943 2.61638 30.9455 2.61638 30.8973V29.0003C2.61638 28.6505 2.48031 28.3221 2.23335 28.0741C1.98477 27.8271 1.65638 27.6916 1.30763 27.6916C0.765488 27.6916 0.288167 28.0184 0.0915597 28.5225C0.031024 28.6736 0.000488281 28.8343 0.000488281 29.0003V42.8411C0.000488281 43.29 0.0744169 43.7309 0.223881 44.1627C0.426381 44.6287 0.63531 45.0086 0.860845 45.3236C1.38263 46.0602 2.00513 46.4796 2.87995 46.6853C3.32138 46.7909 3.83995 46.8418 4.46567 46.8418L8.59442 46.8423C13.8953 46.8428 19.3762 46.845 24.7666 46.8295C24.7687 46.8295 24.7708 46.8295 24.7735 46.8295C25.2069 46.8295 25.3275 46.9618 25.4689 47.3561C28.0708 54.6616 34.7603 59.2784 42.1521 59.2778C43.3473 59.2778 44.5628 59.1568 45.78 58.9071C55.1389 56.9855 61.2846 48.098 59.7712 38.6727ZM42.2105 26.3587C42.2351 26.3587 42.2603 26.3587 42.285 26.3587C46.3623 26.3796 50.1857 27.9873 53.0507 30.8855C55.8851 33.7527 57.4317 37.537 57.4071 41.5409C57.3546 49.8632 50.5558 56.6111 42.2389 56.6105C42.2191 56.6105 42.1982 56.6105 42.1789 56.6105C38.1257 56.595 34.3387 55.0168 31.515 52.1657C28.6483 49.2718 27.0835 45.3878 27.1071 41.2296C27.1521 33.1516 34.0612 26.3587 42.2105 26.3587ZM28.815 3.43178V15.9723C28.388 15.7093 27.9653 15.4516 27.5458 15.1966C26.3914 14.4927 25.3007 13.8278 24.2169 13.1175C23.8039 12.847 23.4235 12.712 23.0448 12.712C22.6671 12.712 22.2916 12.8464 21.8876 13.1148C20.8923 13.7775 19.8508 14.4086 18.8437 15.0187C18.4275 15.2711 18.0107 15.5239 17.596 15.7789C17.4975 15.8395 17.3957 15.8957 17.2901 15.9546C17.2853 15.8303 17.281 15.6691 17.2767 15.5148C17.2237 13.1245 17.2119 4.76356 17.2735 3.43124H28.815V3.43178Z" fill="#0C1928"/>
<path d="M6.92293 38.2618C6.3299 38.4397 5.93026 38.9941 5.97311 39.5791C6.01758 40.184 6.45418 40.6677 7.06115 40.7824C7.27543 40.8225 7.49668 40.8263 7.72329 40.8268C9.25061 40.8295 10.7774 40.8279 12.3042 40.8284L15.9894 40.83C16.5101 40.8306 17.0303 40.8311 17.5504 40.8311C18.2983 40.8311 19.0461 40.83 19.7945 40.8247C20.2981 40.8209 20.7213 40.6516 20.987 40.3463C21.2265 40.0709 21.3251 39.7099 21.2715 39.3022C21.1799 38.6047 20.5847 38.1713 19.7195 38.1707C15.6572 38.167 11.5949 38.1681 7.53258 38.1724C7.32579 38.1729 7.11526 38.2034 6.92293 38.2618Z" fill="#0C1928"/>
<path d="M16.4582 35.273C17.5842 35.273 18.7103 35.2724 19.8364 35.2708C20.7192 35.2692 21.271 34.7732 21.2764 33.976C21.2817 33.1719 20.738 32.6683 19.8573 32.6614C19.0575 32.6544 18.2576 32.6549 17.4578 32.6582L16.4185 32.6592L15.3969 32.6582C14.6303 32.6582 13.8637 32.6566 13.0966 32.6603C12.1939 32.6646 11.5821 33.1842 11.5741 33.9535C11.5703 34.2948 11.6919 34.6001 11.926 34.8369C12.2025 35.1165 12.6112 35.2708 13.0773 35.2714C14.2039 35.2724 15.331 35.273 16.4582 35.273Z" fill="#0C1928"/>
<path d="M8.23549 32.6641C8.08817 32.6577 7.93924 32.6588 7.79138 32.6588L7.7046 32.6593C7.07674 32.6598 6.58924 32.8184 6.29406 33.1179C6.07442 33.3407 5.96567 33.6311 5.97049 33.9798C5.97745 34.4625 6.21531 35.272 7.72924 35.272L7.87656 35.2725C7.92585 35.2731 7.97567 35.2736 8.02549 35.2736C8.08335 35.2736 8.14174 35.273 8.1996 35.2714C8.97585 35.2479 9.52549 34.7186 9.5362 33.9847C9.54692 33.2545 8.99942 32.6989 8.23549 32.6641Z" fill="#0C1928"/>
<path d="M34.8321 48.8561L36.923 48.8614C38.0517 48.8652 39.1982 48.8684 40.3505 48.8684C41.6357 48.8684 42.9284 48.8641 44.2087 48.8507C47.161 48.8202 49.6955 47.0079 50.6651 44.2323C51.6134 41.5179 50.7717 38.5522 48.5201 36.6766C47.2794 35.6443 45.7826 35.1129 44.0705 35.0984C43.2096 35.0909 42.3482 35.0925 41.4401 35.0947L40.4855 35.0957L40.8492 34.7373C41.2725 34.3205 41.6641 33.9354 42.0525 33.5475C42.42 33.1805 42.5459 32.7975 42.4392 32.377C42.3241 31.9243 42.023 31.5986 41.6121 31.4834C41.1884 31.3634 40.7175 31.5011 40.3591 31.8525C39.308 32.88 38.1825 34.0045 36.8159 35.3893C36.2384 35.9743 36.2437 36.6525 36.8325 37.2482C38.0935 38.5243 39.3471 39.7693 40.298 40.7122C40.8835 41.2907 41.6148 41.3395 42.1189 40.8316C42.6353 40.3114 42.5903 39.6161 42 39.0172C41.6298 38.6416 41.2553 38.2698 40.8567 37.8739L40.5262 37.5461C40.9071 37.5439 41.281 37.5397 41.6507 37.5354C42.6942 37.5214 43.6789 37.5107 44.67 37.56C45.7526 37.6125 46.8225 38.19 47.6046 39.143C48.4098 40.1245 48.7767 41.325 48.6112 42.4382C48.2426 44.9122 46.4534 46.4502 43.9414 46.4518C42.503 46.4529 41.0657 46.4523 39.6273 46.4523C38.0437 46.4523 36.4623 46.4513 34.8814 46.4534C33.9985 46.4539 33.4719 46.9061 33.4719 47.6625C33.4719 48.4088 33.9809 48.855 34.8321 48.8561Z" fill="#FFB23E"/>
<path d="M1.30768 25.1105C2.02875 25.1105 2.61589 24.5239 2.61589 23.8028C2.61589 23.0817 2.02929 22.4951 1.30768 22.4951C0.586607 22.4951 0 23.0817 0 23.8028C0 24.5239 0.586607 25.1105 1.30768 25.1105Z" fill="#0C1928"/>
</g>
<defs>
<clipPath id="clip0_1_496">
<rect width="60" height="60" fill="white"/>
</clipPath>
</defs>
</svg>
