<svg width="60" height="60" viewBox="0 0 60 60" fill="none" xmlns="http://www.w3.org/2000/svg">
<path d="M10.3704 49.26C10.3248 49.2134 10.2798 49.1668 10.2354 49.1186C3.67179 42.0739 1.27179 33.773 3.10286 24.4473C4.39661 17.8559 8.12036 12.0021 13.5879 7.96286C19.042 3.93429 25.7609 2.055 32.4991 2.66625C37.5139 3.12054 42.165 4.87661 46.3227 7.88679C46.4405 7.97196 46.5498 8.06732 46.6912 8.19107C46.7652 8.25536 46.8482 8.32768 46.9468 8.41125L47.5066 8.88375H46.7737C46.3945 8.88375 46.0264 8.88268 45.6686 8.88161L45.5196 8.88107C44.5511 8.87732 43.7448 8.87518 42.9236 8.88911C42.5057 8.89661 42.1655 9.02464 41.9405 9.26089C41.7493 9.46179 41.6529 9.73393 41.6636 10.0462C41.6845 10.7041 42.1773 11.1134 42.9504 11.115C45.3777 11.1193 47.8039 11.1187 50.2307 11.1155C51.15 11.1139 51.5796 10.6912 51.5823 9.78428C51.5898 7.38053 51.5882 4.97678 51.5834 2.57357C51.5823 2.11928 51.4473 1.73571 51.2036 1.49303C51.0075 1.29857 50.7396 1.18821 50.4616 1.20268C49.77 1.20536 49.3425 1.73464 49.3393 2.58321C49.3361 3.53678 49.3366 4.49089 49.3377 5.48464L49.3382 7.37732L48.7355 6.93964C48.6086 6.84803 48.5143 6.77946 48.4211 6.70982C42.7109 2.43803 36.6209 0.271606 30.3204 0.271606C26.6743 0.271606 22.8991 1.00071 19.1009 2.43804C6.09 7.36286 -1.65911 20.9904 0.676071 34.8407C1.46571 39.5255 3.27643 43.8209 6.05786 47.6078C6.90911 48.7677 7.87821 49.8964 8.93893 50.9641C9.34232 51.3707 9.85339 51.4623 10.3061 51.2095C10.7357 50.9684 10.9468 50.482 10.8439 49.9698C10.7871 49.6896 10.5943 49.4909 10.3704 49.26Z" fill="#0C1928"/>
<path d="M18.0798 36.6911C18.2796 36.3338 18.2871 35.9438 18.1007 35.6218C17.8923 35.2629 17.4755 35.0448 16.9859 35.039C15.8357 35.0272 14.6893 35.0293 13.4754 35.0315L11.0571 35.0341L11.6095 34.5622C12.3471 33.9322 13.0655 33.4495 13.7604 32.9818L13.7979 32.9566C14.0346 32.797 14.2693 32.6395 14.5007 32.4772C15.4939 31.7834 16.4459 31.0838 17.1809 30.1591C18.0145 29.1097 18.3766 27.8432 18.2014 26.5923C18.0386 25.4304 17.4198 24.412 16.4588 23.7236C15.2384 22.8504 13.6527 22.574 12.1071 22.9682C10.5563 23.3641 9.28982 24.3724 8.63196 25.7352C8.49321 26.0229 8.41554 26.2672 8.48679 26.5259C8.63304 27.0579 8.95232 27.3461 9.46232 27.4077C9.93429 27.4634 10.3243 27.2491 10.5616 26.8045C11.0368 25.9147 11.7161 25.3607 12.6391 25.11C12.8984 25.0399 13.1684 25.004 13.4421 25.004C14.3995 25.004 15.2925 25.4497 15.7168 26.1397C16.2884 27.0686 16.0645 28.1716 15.1029 29.1654C14.6036 29.6807 14.0266 30.0991 13.4293 30.5175C13.132 30.7254 12.8314 30.9279 12.5309 31.1298C11.6738 31.7063 10.7877 32.302 10.0211 33.0193C9.11625 33.8663 8.61054 34.777 8.475 35.8045C8.41768 36.2395 8.51357 36.6252 8.74554 36.892C8.95768 37.1357 9.26946 37.2665 9.64714 37.2697C11.9823 37.29 14.3271 37.282 16.5943 37.2756L17.0496 37.274C17.5248 37.2723 17.8613 37.0822 18.0798 36.6911Z" fill="#0C1928"/>
<path d="M46.4459 36.4088C48.1002 32.4472 49.7523 28.4839 51.3969 24.5164C51.5994 24.0263 51.5978 23.5859 51.3921 23.2768C51.1789 22.957 50.7541 22.7802 50.1964 22.7786C48.09 22.7732 45.9841 22.7748 43.8777 22.7786C43.3918 22.7791 42.9857 22.9216 42.7339 23.1793C42.5453 23.3722 42.4494 23.6272 42.4559 23.9164C42.4714 24.6059 42.9969 25.0189 43.861 25.0211C44.7428 25.0232 45.6252 25.0232 46.5294 25.0227L48.36 25.0222H48.7441L48.5153 25.6457C48.4553 25.8123 48.4093 25.9398 48.3573 26.0647L44.4214 35.5082C44.2923 35.813 44.1814 36.0761 44.2559 36.3643C44.386 36.8711 44.7846 37.2279 45.2716 37.2734C45.7628 37.3206 46.2016 36.9922 46.4459 36.4088Z" fill="#0C1928"/>
<path d="M38.2104 21.2577C38.1643 21.2508 38.1177 21.2476 38.0716 21.2476C37.5541 21.2476 37.0929 21.6745 36.9745 22.2633C36.0418 26.9063 35.0625 31.8343 33.9793 37.3297C33.8293 38.0915 34.1652 38.6513 34.8557 38.7906C35.4568 38.9111 35.9952 38.4649 36.1436 37.7299L36.1999 37.4502C36.9847 33.561 37.7695 29.6717 38.55 25.7818C38.7054 25.0083 38.8548 24.2331 38.9995 23.482L39.1993 22.447C39.1993 21.8347 38.8023 21.3472 38.2104 21.2577Z" fill="#FFB23E"/>
<path d="M57.5637 37.6972C57.4571 37.672 57.3515 37.6597 57.2503 37.6597C56.8078 37.6597 56.458 37.89 56.2903 38.2913C55.9399 39.1297 55.5981 40.0361 55.2473 41.0615C55.0919 41.5157 55.3281 42.0493 55.7969 42.3022C56.2073 42.5234 56.8565 42.4731 57.1105 42.0729C57.7507 41.0599 58.079 39.9027 58.3689 38.8822C58.3576 38.2715 58.0485 37.8118 57.5637 37.6972Z" fill="#0C1928"/>
<path d="M56.7487 23.5789C56.895 24.2754 57.0573 25.0495 57.2668 25.7936C57.3964 26.2511 58.0168 26.5055 58.4443 26.4086C58.9377 26.2961 59.4129 25.8659 59.3534 25.342C59.2152 24.1323 58.9891 23.1032 58.6623 22.1957C58.4946 21.728 58.0087 21.4741 57.4752 21.578C56.895 21.6927 56.5945 22.1073 56.5837 22.8102C56.6389 23.0545 56.693 23.3121 56.7487 23.5789Z" fill="#0C1928"/>
<path d="M53.708 44.9785H53.6844C53.6839 44.9785 53.6834 44.9785 53.6823 44.9785C53.3443 44.9785 53.0812 45.1055 52.8927 45.3455C52.3596 46.0264 51.735 46.8348 51.1489 47.6705C50.8264 48.1291 50.9282 48.7692 51.3798 49.1276C51.8352 49.4898 52.4362 49.4641 52.808 49.0666C53.5569 48.2673 54.1864 47.4316 54.6793 46.5824C54.8711 46.2508 54.8705 45.8566 54.6782 45.5282C54.4757 45.1837 54.1125 44.9785 53.708 44.9785Z" fill="#0C1928"/>
<path d="M41.1289 55.2332C40.1046 55.5707 39.1157 55.9403 38.1878 56.3325C37.7598 56.5125 37.5391 57.0069 37.6623 57.5078C37.8 58.0709 38.1985 58.3505 38.881 58.3639L39.0203 58.3237C39.9862 58.0452 41.0807 57.7296 42.0434 57.1114C42.4634 56.8409 42.4762 56.2569 42.2743 55.8455C42.053 55.3939 41.5184 55.1078 41.1289 55.2332Z" fill="#0C1928"/>
<path d="M25.7197 57.2416C24.9949 57.0364 24.2664 56.8848 23.5614 56.7375C23.2635 56.6758 22.9887 56.6185 22.7272 56.5607C22.0656 56.566 21.5717 56.9566 21.4983 57.5592C21.4356 58.0746 21.8251 58.6012 22.3662 58.7335C23.2303 58.9451 24.1196 59.138 25.0865 59.3239C25.6447 59.423 26.1687 59.085 26.3294 58.5091C26.4853 57.9498 26.2115 57.3814 25.7197 57.2416Z" fill="#0C1928"/>
<path d="M18.016 54.7784C17.3287 54.3836 16.5846 53.9749 15.7409 53.5281C15.5314 53.4183 15.3096 53.3599 15.1002 53.3599C14.7043 53.3599 14.3635 53.5629 14.1637 53.917C13.8428 54.4875 14.0368 55.0929 14.6571 55.4577C15.2003 55.7775 15.7644 56.0808 16.3098 56.3743C16.5166 56.4852 16.7234 56.5966 16.9296 56.7086C17.13 56.8174 17.3223 56.8613 17.5184 56.8479C18.0364 56.8415 18.4425 56.5286 18.5871 56.0309C18.7296 55.5418 18.5105 55.0618 18.016 54.7784Z" fill="#0C1928"/>
<path d="M54.8169 18.0852C55.1325 18.6316 55.7319 18.818 56.2746 18.5411C56.8419 18.2507 57.0364 17.6384 56.7482 17.0523C56.3319 16.2022 55.8482 15.3466 55.4276 14.6116C55.216 14.2425 54.9032 14.0775 54.4125 14.0775H54.3787C54.0444 14.0775 53.7343 14.2522 53.5484 14.5441C53.3421 14.8682 53.325 15.2791 53.5018 15.6434C53.8532 16.3661 54.271 17.1418 54.8169 18.0852Z" fill="#0C1928"/>
<path d="M58.7861 29.6545C58.7357 29.6492 58.687 29.6465 58.6393 29.6465C58.3548 29.6465 58.1004 29.7322 57.9027 29.894C57.6831 30.0734 57.5518 30.3327 57.5223 30.644C57.4393 31.522 57.3804 32.4568 57.3477 33.4233C57.3268 34.0233 57.7645 34.5118 58.365 34.5595C58.9597 34.5986 59.4493 34.1759 59.519 33.5604C59.5891 32.9315 59.6427 32.2924 59.6856 31.7792L59.7354 31.1958C59.7686 30.2974 59.4145 29.7183 58.7861 29.6545Z" fill="#0C1928"/>
<path d="M48.7307 51.1108C48.5588 51.0187 48.3873 50.9716 48.2213 50.9716C48.0064 50.9716 47.7911 51.0498 47.5816 51.2046L47.4509 51.3005C46.7727 51.7998 46.0714 52.3157 45.3997 52.8417C44.9127 53.2237 44.8061 53.858 45.1457 54.3508C45.495 54.8566 46.1716 54.9766 46.6864 54.6203C47.3834 54.1414 48.0857 53.5982 48.7055 53.1187L48.9166 52.9548C49.1898 52.7442 49.3286 52.4683 49.3179 52.156C49.3339 51.6658 49.1475 51.3364 48.7307 51.1108Z" fill="#0C1928"/>
<path d="M33.3573 57.3439C33.3203 57.3439 33.2828 57.3449 33.2448 57.3476H33.2432C32.8671 57.3658 32.4916 57.3921 32.1155 57.4183L32.0421 57.4232C31.658 57.4494 31.2734 57.4762 30.8893 57.4944C30.0723 57.5324 29.6127 57.9557 29.6293 58.6553C29.6362 58.9516 29.7364 59.1926 29.9271 59.3726C30.1934 59.6233 30.6343 59.7498 31.1802 59.7257C31.3061 59.7144 31.4561 59.7016 31.6152 59.6887L31.7437 59.678C32.2698 59.6346 32.8377 59.588 33.4071 59.5237C34.1732 59.4369 34.5578 58.9971 34.4909 58.2851C34.4368 57.6969 34.0061 57.3439 33.3573 57.3439Z" fill="#0C1928"/>
<path d="M31.0146 31.2476C31.0039 31.2209 30.9932 31.1941 30.9771 31.1673C30.961 31.1405 30.9503 31.1191 30.9343 31.0923C30.8914 31.0334 30.8432 30.9798 30.795 30.9262C30.7789 30.9101 30.7575 30.8941 30.7414 30.878C30.72 30.8566 30.6985 30.8405 30.6718 30.8244C30.4843 30.6798 30.2485 30.5941 29.9914 30.5941H28.6628V27.9584C28.6628 26.3994 28.6628 24.8405 28.6575 23.2816C28.6575 22.6601 28.4164 22.2851 27.9021 22.0923C27.4093 21.9155 27.0021 22.0494 26.6271 22.5155C24.3503 25.3387 22.0789 28.1726 19.8075 31.0119C19.5021 31.3923 19.4539 31.7994 19.6682 32.2119C19.8825 32.6298 20.2093 32.828 20.6968 32.828C21.2753 32.8226 21.8593 32.8226 22.4432 32.8226V32.828H26.4503V33.0691L26.4557 33.0744V33.1923C26.4557 33.5619 26.4557 33.9369 26.4503 34.3066V34.8316C26.4503 35.5494 26.4503 36.278 26.461 36.9959C26.461 37.1405 26.4932 37.2744 26.5468 37.3976C26.7075 37.7619 27.0771 38.0244 27.5057 38.0459C28.0575 38.0726 28.5557 37.6655 28.6146 37.1351C28.6575 36.6584 28.6575 36.1548 28.6575 35.6673V35.1905C28.6628 34.7137 28.6628 34.2316 28.6628 33.7548V32.8762L28.9146 32.8655C28.936 32.8655 28.9628 32.8601 28.9843 32.8601H29.9914C30.3075 32.8601 30.586 32.7316 30.795 32.528C30.8218 32.5012 30.8432 32.4744 30.87 32.4476L30.8753 32.4423C31.0093 32.2762 31.1003 32.0673 31.1218 31.8423V31.7941C31.1271 31.7726 31.1271 31.7512 31.1271 31.7298C31.1271 31.5584 31.0896 31.3923 31.0146 31.2476ZM26.4075 30.5941H22.9896L26.4075 26.3298V30.5941Z" fill="#0C1928"/>
</svg>
