<svg width="60" height="60" viewBox="0 0 60 60" fill="none" xmlns="http://www.w3.org/2000/svg">
<path d="M22.5658 37.5466C22.5856 37.5466 22.6049 37.5466 22.6247 37.5466C26.3319 37.5466 29.837 36.0895 32.5001 33.4404C35.1765 30.7768 36.6583 27.2507 36.6711 23.5115C36.6867 19.7845 35.2311 16.259 32.5719 13.5852C29.9072 10.9056 26.3806 9.42699 22.6408 9.42163C22.6376 9.42163 22.6344 9.42163 22.6311 9.42163C14.8745 9.42163 8.5574 15.7088 8.54615 23.4413C8.54132 31.1925 14.8301 37.5198 22.5658 37.5466ZM10.5701 23.5045C10.5572 20.3165 11.8033 17.3009 14.0779 15.0129C16.3531 12.7248 19.366 11.4579 22.5615 11.445C22.5781 11.445 22.5942 11.445 22.6103 11.445C25.7956 11.445 28.7972 12.6884 31.067 14.9491C33.3556 17.2286 34.6161 20.2581 34.6161 23.4788C34.6161 30.0916 29.2322 35.4798 22.6145 35.4906C22.6044 35.4906 22.5947 35.4906 22.5851 35.4906C15.9781 35.49 10.591 30.12 10.5701 23.5045Z" fill="#0C1928"/>
<path d="M9.31505 38.3031C7.51827 38.295 5.8447 38.295 4.20113 38.3036C3.76077 38.3058 3.4297 38.4188 3.21648 38.639C3.04398 38.8179 2.96041 39.0552 2.96898 39.345C2.98773 39.9622 3.44363 40.335 4.18988 40.3409C4.52738 40.3441 4.86541 40.3447 5.20345 40.3447C5.44184 40.3447 5.68023 40.3441 5.91863 40.3441L6.74738 40.3431L7.50487 40.3436C8.10487 40.3447 8.70487 40.3447 9.30487 40.3415C10.3892 40.3345 10.5552 39.7008 10.5584 39.3236C10.5606 39.0268 10.4765 38.79 10.3077 38.6202C10.0977 38.4086 9.77362 38.3052 9.31505 38.3031Z" fill="#0C1928"/>
<path d="M8.67963 42.0477C8.46052 42.0316 8.24035 42.0354 8.02767 42.0391C7.97731 42.0402 7.92695 42.0413 7.87606 42.0418L6.87213 42.0354C6.82927 42.0354 6.78588 42.037 6.7441 42.0413C6.17088 42.0949 5.77499 42.4843 5.75999 43.0104C5.74392 43.5708 6.1441 44.017 6.68999 44.0481C7.03285 44.0668 7.36981 44.0765 7.69874 44.0765C8.05445 44.0765 8.40053 44.0652 8.73481 44.0433C8.99249 44.0266 9.22338 43.9158 9.38463 43.7304C9.5582 43.5316 9.64285 43.2643 9.62249 42.9772C9.58338 42.4195 9.24856 42.0895 8.67963 42.0477Z" fill="#0C1928"/>
<path d="M21.2388 44.8409C20.6843 44.8494 20.2735 45.2571 20.2622 45.8116C20.2563 46.0907 20.3592 46.3532 20.5515 46.5514C20.7379 46.7432 20.9865 46.8509 21.2517 46.853C21.2549 46.853 21.2576 46.853 21.2608 46.853C21.5195 46.853 21.7777 46.7443 21.9701 46.553C22.1656 46.3591 22.277 46.0966 22.2765 45.833C22.276 45.5684 22.171 45.3198 21.9813 45.1334C21.7842 44.9405 21.5158 44.8328 21.2388 44.8409Z" fill="#0C1928"/>
<path d="M50.0935 46.8525C50.1074 46.853 50.1224 46.8535 50.1363 46.8535C50.3806 46.8535 50.6238 46.7555 50.8102 46.5814C51.0122 46.3923 51.1317 46.1287 51.1365 45.8593C51.1418 45.5796 51.0438 45.3219 50.8606 45.1344C50.6758 44.9453 50.4186 44.8414 50.1358 44.8403C50.1347 44.8403 50.1331 44.8403 50.132 44.8403C49.5915 44.8403 49.1447 45.2534 49.1147 45.7827C49.1002 46.0376 49.1967 46.3007 49.3799 46.5048C49.569 46.7132 49.8283 46.8402 50.0935 46.8525Z" fill="#0C1928"/>
<path d="M18.8582 28.2166C19.1298 28.2166 19.4105 28.095 19.6601 27.855C20.1262 27.4093 20.6228 26.9261 21.1012 26.4086C21.3235 26.1664 21.4757 26.1257 21.8068 26.2216C22.8525 26.5404 23.8232 26.3009 24.6128 25.5273C25.396 24.7607 25.6623 23.768 25.3628 22.7314C25.2594 22.372 25.3076 22.1909 25.5787 21.9252C26.9609 20.5747 28.3441 19.1807 29.6823 17.8323L29.7321 17.782C30.0284 17.4825 30.1687 17.1155 30.1162 16.7764C30.0701 16.4748 29.88 16.222 29.5816 16.0645C29.0057 15.7613 28.583 16.0655 28.245 16.403C27.8994 16.7486 27.5534 17.092 27.2073 17.4354C26.2912 18.345 25.3441 19.2857 24.4328 20.2361C23.9539 20.7327 23.6335 20.9234 23.1091 20.6673C22.9875 20.6095 22.8493 20.6009 22.7668 20.5961C22.7469 20.595 22.7303 20.5945 22.6934 20.5902C21.7328 20.5929 20.8644 21.0177 20.3105 21.7564C19.7657 22.4829 19.6012 23.4118 19.8594 24.3054C19.9489 24.6091 19.9076 24.7645 19.6821 24.9707C19.2364 25.3923 18.7655 25.8632 18.2421 26.4113C17.7509 26.9255 17.7284 27.4934 18.1821 27.9289C18.383 28.1218 18.6171 28.2166 18.8582 28.2166ZM22.6226 22.6522C23.0984 22.6618 23.4305 22.9993 23.4305 23.475C23.4326 23.7107 23.3501 23.9245 23.1975 24.0755C23.0432 24.2282 22.8262 24.3193 22.5851 24.3059C22.1169 24.2963 21.7773 23.9513 21.7773 23.483C21.7751 23.2505 21.8587 23.0384 22.013 22.8857C22.1651 22.7347 22.3746 22.6522 22.6044 22.6522C22.6103 22.6516 22.6167 22.6516 22.6226 22.6522Z" fill="#FFB23E"/>
<path d="M30.2234 24.142C30.4672 24.3857 30.8716 24.5047 31.4599 24.5047C31.4625 24.5047 31.4652 24.5047 31.4674 24.5047H31.5461C31.5691 24.5047 31.5916 24.5052 31.6147 24.5052C31.6447 24.5052 31.6741 24.5052 31.7041 24.5041C32.1349 24.4886 32.4777 24.3557 32.6968 24.12C32.8645 23.939 32.9481 23.7048 32.9374 23.4434C32.9143 22.8563 32.43 22.4668 31.7031 22.4507C31.6474 22.4497 31.5927 22.4502 31.5359 22.4502H31.4684C31.4679 22.4502 31.4679 22.4502 31.4674 22.4502C30.2341 22.4502 29.9732 23.0084 29.9722 23.4766C29.9711 23.7504 30.0557 23.9743 30.2234 24.142Z" fill="#0C1928"/>
<path d="M22.6596 30.8599C22.125 30.8395 21.7419 31.1304 21.6091 31.6844C21.5753 31.8252 21.5732 31.9683 21.571 32.1065C21.57 32.166 21.5694 32.2254 21.5657 32.2838L21.5533 32.4258H21.5764V32.4354C21.5742 32.5463 21.5721 32.6577 21.5812 32.7676C21.63 33.3654 22.0398 33.7956 22.5771 33.8133C22.5878 33.8138 22.5985 33.8138 22.6092 33.8138C23.1364 33.8138 23.5628 33.3874 23.6078 32.8088C23.6341 32.4713 23.6292 32.1135 23.5928 31.7449C23.5408 31.2204 23.1921 30.8899 22.6596 30.8599Z" fill="#0C1928"/>
<path d="M15.2127 23.5066C15.2314 22.957 14.8741 22.5482 14.302 22.4662C14.1621 22.4459 14.0228 22.4475 13.8868 22.4502L13.762 22.4512C13.7603 22.4512 13.7587 22.4512 13.7566 22.4512C13.1695 22.4512 12.7661 22.5691 12.525 22.8107C12.3573 22.9789 12.2721 23.205 12.2732 23.4825C12.2759 24.3959 13.1962 24.5046 13.9028 24.5046C13.9066 24.5046 13.9103 24.5046 13.9141 24.5046L13.9532 24.5036C14.0287 24.502 14.1702 24.4987 14.3116 24.4773C14.8816 24.3927 15.1934 24.0568 15.2127 23.5066Z" fill="#0C1928"/>
<path d="M21.5775 14.714C21.5769 14.7247 21.5769 14.7354 21.5764 14.7461C21.5721 14.8699 21.5673 14.9979 21.5855 15.127C21.6712 15.734 22.0114 16.0667 22.5707 16.0892C22.5884 16.0897 22.606 16.0902 22.6237 16.0902C23.183 16.0902 23.558 15.72 23.6078 15.1125C23.6362 14.767 23.6309 14.4086 23.5928 14.047C23.5376 13.5252 23.191 13.1925 22.6655 13.1572C22.141 13.1213 21.7548 13.4208 21.6101 13.9768C21.5737 14.1183 21.5721 14.2629 21.5705 14.4022C21.57 14.4611 21.5694 14.52 21.5657 14.5779L21.5726 14.7134L21.5775 14.714Z" fill="#0C1928"/>
<path d="M3.67298 36.6199C4.67155 36.6177 5.67012 36.6188 6.66708 36.6188L7.9978 36.6193C8.23083 36.6193 8.46333 36.6204 8.69583 36.622C9.24762 36.6241 9.81923 36.6279 10.3817 36.6134C10.7626 36.6032 11.069 36.4752 11.2673 36.2432C11.4483 36.0311 11.5223 35.7515 11.4805 35.4349C11.4039 34.86 10.9801 34.5681 10.221 34.567C8.02512 34.5627 5.82708 34.5659 3.63601 34.5616L1.08012 34.559C0.510119 34.559 0.0456543 35.0229 0.0456543 35.5934C0.0456543 36.164 0.509583 36.6284 1.08012 36.6284H3.59744C3.61994 36.6279 3.64137 36.6252 3.67298 36.6199Z" fill="#0C1928"/>
<path d="M58.9233 35.1161L58.4208 34.7497C57.8604 34.3404 57.2808 33.9167 56.6936 33.5288C56.3508 33.2979 56.2249 33.0611 56.2297 32.6535C56.242 30.7018 56.2324 28.7192 56.2222 26.8013L56.2136 25.0951C56.2083 23.3974 55.2659 22.4593 53.5613 22.4534C51.6022 22.4481 49.649 22.4481 47.6904 22.4481H47.1933C46.9988 21.1592 46.4534 20.602 45.3863 20.5908C43.3377 20.5742 41.2677 20.5817 39.5149 20.5908C38.827 20.5908 38.3786 20.9888 38.3722 21.6043C38.3658 22.2317 38.7879 22.6136 39.5025 22.6254C40.492 22.6335 41.4831 22.6329 42.4763 22.6313L45.0504 22.6308C43.0468 30.1061 41.0749 37.4674 39.1136 44.7922H26.1354C26.1284 44.7408 26.1236 44.6963 26.1204 44.6497C25.9758 42.6097 24.5427 41.1965 22.5547 41.1317C20.1595 41.0551 18.3284 42.1436 16.9704 44.4735C16.8531 44.6711 16.6924 44.8115 16.6222 44.8136C15.7377 44.842 14.8624 44.8399 13.9361 44.8367L13.2745 44.8356L13.2825 44.8035C13.3243 44.631 13.3602 44.4804 13.3993 44.3363L13.9484 42.2738C14.2629 41.0936 14.5779 39.9145 14.8881 38.7376C15.0531 38.1183 14.7777 37.5767 14.2184 37.4213C13.9388 37.3431 13.6758 37.3683 13.4588 37.492C13.2065 37.6361 13.019 37.9115 12.9166 38.2886C12.3702 40.2863 11.8045 42.3949 11.2356 44.5549C11.1568 44.8506 11.1322 45.1195 11.1627 45.3531C11.2774 46.266 11.962 46.8402 12.9483 46.8526C13.7834 46.8638 14.6202 46.8622 15.4624 46.8595L16.3618 46.8579C16.3704 46.9126 16.3779 46.9592 16.3849 47.0031L16.4084 47.1531C16.7095 49.3527 18.2304 50.6481 20.3893 50.5613C22.59 50.4617 24.3011 49.3565 25.4738 47.2752C25.6613 46.9431 25.8252 46.8467 26.2056 46.8467C31.1861 46.8595 36.1677 46.8579 41.1504 46.8579L45.2283 46.8574C45.3734 48.5888 46.222 49.4915 46.9174 49.9458C47.5586 50.3642 48.3365 50.5774 49.1524 50.5774C49.7208 50.5774 50.3074 50.4745 50.879 50.2651C52.4524 49.694 53.64 48.6558 54.4104 47.1815C54.5374 46.942 54.63 46.8547 54.8963 46.8413C56.4081 46.7631 57.7013 45.7243 58.1133 44.2576C58.7658 41.9486 59.3384 39.8074 59.865 37.7106C60.1297 36.6504 59.8034 35.7526 58.9233 35.1161ZM47.2854 46.6565C47.4429 44.8292 49.3147 43.139 51.1597 43.139C51.1822 43.139 51.2041 43.139 51.2261 43.1395C52.3152 43.1599 52.9624 43.8215 52.957 44.9101C52.9495 45.8615 52.402 46.8735 51.4924 47.617C50.609 48.3381 49.5483 48.6649 48.6563 48.4886C47.7579 48.3043 47.2061 47.5683 47.2854 46.6565ZM55.7331 38.3915C55.7331 38.9556 56.1916 39.4142 56.7552 39.4142H57.3295C57.2368 39.7549 57.1458 40.0924 57.0558 40.4272C56.737 41.6095 56.4365 42.726 56.1011 43.8477C55.9624 44.3117 55.6029 44.6197 55.0313 44.7649C55.02 44.692 55.0099 44.6208 54.9991 44.5522C54.9643 44.3165 54.9311 44.0936 54.8759 43.8745C54.3515 41.8201 52.3506 40.6961 50.1161 41.1992C48.2283 41.6267 46.8033 42.7179 45.8808 44.4429C45.7147 44.7606 45.569 44.8426 45.2604 44.8463C44.64 44.8345 44.0266 44.8313 43.4015 44.8313C43.0259 44.8313 42.6456 44.8324 42.2572 44.8335C41.9208 44.8345 41.5811 44.8356 41.2383 44.8361C41.2404 44.8233 41.2425 44.8099 41.2447 44.7976C41.2618 44.6926 41.2768 44.6026 41.2993 44.5136C41.4284 44.0272 41.5591 43.5424 41.6899 43.057C41.9754 41.9958 42.2711 40.8981 42.5443 39.8095C42.6231 39.4843 42.7291 39.4045 43.0806 39.4045C46.2761 39.4201 49.522 39.4152 52.6656 39.4099C52.8916 39.4099 53.1541 39.3992 53.3909 39.3231C53.8656 39.1667 54.1088 38.7885 54.059 38.2854C54.0086 37.7856 53.6958 37.4626 53.2008 37.3977C52.9838 37.3699 52.7625 37.3699 52.5483 37.3699H43.2161C43.2659 37.176 43.3131 36.996 43.3586 36.8192L44.167 33.8058C44.9497 30.9001 45.7586 27.8952 46.5359 24.9327C46.6334 24.5572 46.7679 24.4935 47.115 24.4993C48.6129 24.5106 50.1113 24.5085 51.6118 24.5063L53.3909 24.5047C54.1924 24.5095 54.1924 24.5095 54.1972 25.3442C54.202 25.5981 54.2025 25.852 54.2025 26.1793L52.5429 26.1783C51.9209 26.1772 51.3 26.1761 50.6797 26.1793C48.9531 26.1901 47.5891 27.2213 47.1204 28.8697C46.8268 29.8881 46.5836 30.7849 46.3774 31.612C46.1684 32.4451 46.3034 33.2277 46.7572 33.816C47.2136 34.4074 47.9427 34.7401 48.8111 34.7508C49.6495 34.7577 50.4906 34.7561 51.3306 34.7551C52.372 34.754 53.4472 34.7524 54.5041 34.7663C54.7533 34.7711 55.0495 34.8654 55.2756 35.0106C56.1761 35.6074 56.8918 36.1206 57.5277 36.6258C57.592 36.6783 57.6456 36.7485 57.6943 36.846L57.7184 36.892C57.727 36.9065 57.7383 36.936 57.7645 36.9965C57.7709 37.0072 57.7758 37.0185 57.7806 37.0302C57.7875 37.0458 57.794 37.0624 57.802 37.0774C57.8234 37.1213 57.8459 37.1711 57.8679 37.2209L57.9343 37.3693H56.7558C56.1916 37.3693 55.7331 37.8279 55.7331 38.3915ZM48.3611 32.5613C48.2845 32.4638 48.2979 32.3218 48.3225 32.2201C48.5829 31.1733 48.8438 30.1522 49.1631 29.1617C49.3345 28.642 49.7577 28.2943 50.2415 28.2767C50.8163 28.2558 51.3852 28.2504 51.9633 28.2504C52.3463 28.2504 52.7336 28.2531 53.1295 28.2558C53.4777 28.2579 53.8281 28.2606 54.18 28.2611V32.6947H50.2372C49.9833 32.6947 49.7309 32.6931 49.4786 32.692C49.2274 32.6904 48.9772 32.6893 48.727 32.6893C48.6054 32.6893 48.4441 32.6674 48.3611 32.5613ZM24.1083 44.8335C24.1302 45.7586 23.6041 46.7711 22.7015 47.5431C21.8122 48.3033 20.7509 48.6601 19.8584 48.4977C18.9204 48.329 18.4265 47.7338 18.4313 46.7786C18.4361 45.8438 18.9665 44.8388 19.8499 44.091C20.5865 43.4679 21.457 43.1208 22.2525 43.1208C22.3918 43.1208 22.529 43.1315 22.6624 43.1535C23.5211 43.2922 24.0884 43.9517 24.1083 44.8335Z" fill="#0C1928"/>
</svg>
