<svg width="21" height="20" viewBox="0 0 21 20" fill="none" xmlns="http://www.w3.org/2000/svg">
<path fill-rule="evenodd" clip-rule="evenodd" d="M15.2948 0C18.5474 0 21 2.65381 21 6.17302V12.8813C21 14.6824 20.3632 16.3097 19.2057 17.4642C18.1674 18.4986 16.8205 19.0465 15.3105 19.0465H5.6866C4.17949 19.0465 2.83353 18.4995 1.79428 17.4642C0.636837 16.3097 0 14.6824 0 12.8813V6.17302C0 2.65381 2.4526 0 5.70516 0H15.2948ZM15.2948 1.46512H5.70516C3.24865 1.46512 1.46512 3.44498 1.46512 6.17302V12.8813C1.46512 14.2907 1.94958 15.5498 2.82865 16.4259C3.5866 17.1829 4.57605 17.5814 5.68954 17.5814H15.2948C15.2968 17.5794 15.3046 17.5814 15.3105 17.5814C16.4249 17.5814 17.4134 17.1829 18.1713 16.4259C19.0514 15.5498 19.5349 14.2907 19.5349 12.8813V6.17302C19.5349 3.44498 17.7513 1.46512 15.2948 1.46512ZM16.8342 5.98627C17.0891 6.2998 17.0413 6.76083 16.7277 7.01673L12.3871 10.5447C11.8381 10.9804 11.1818 11.1982 10.5264 11.1982C9.87293 11.1982 9.22144 10.9823 8.67642 10.5506L4.29572 7.01869C3.98023 6.76473 3.9314 6.30273 4.18437 5.98822C4.4393 5.67469 4.90033 5.62487 5.21484 5.87785L9.59163 9.40585C10.1415 9.84148 10.9161 9.84148 11.4699 9.40194L15.8027 5.8798C16.1173 5.62292 16.5783 5.67176 16.8342 5.98627Z" fill="white"/>
</svg>
