<svg width="160" height="53" viewBox="0 0 160 53" fill="none" xmlns="http://www.w3.org/2000/svg">
<path d="M19.7054 0H21.1282C26.0677 0.108566 30.9268 2.11704 34.4167 5.67258C33.1281 7.00252 31.8127 8.27817 30.5509 9.60811C28.5912 7.81677 26.2288 6.43255 23.6516 5.944C19.8396 5.12975 15.7322 5.86258 12.5376 8.06104C9.04771 10.3681 6.6853 14.2765 6.17524 18.4563C5.61149 22.5818 6.76584 26.9244 9.42354 30.1271C11.9739 33.2484 15.8665 35.2026 19.8933 35.3383C23.6516 35.5554 27.5711 34.3883 30.3093 31.7285C32.457 29.8557 33.4502 27.0058 33.7724 24.2374C29.316 24.2374 24.8597 24.2645 20.4033 24.2374V18.6462H39.1683C40.1348 24.6445 38.7388 31.4028 34.2288 35.6911C31.2221 38.731 27.061 40.5223 22.8194 40.8752C18.7121 41.2823 14.4705 40.4952 10.8195 38.4867C6.4437 36.1254 2.95378 32.1356 1.23567 27.4401C-0.375055 23.1246 -0.401901 18.2391 1.10145 13.8965C2.47056 9.93381 5.10142 6.43255 8.48395 3.98981C11.7323 1.57421 15.6785 0.244274 19.7054 0Z" fill="#BDC7D5"/>
<path d="M127.356 1.41138H133.101V40.1695C131.195 40.1695 129.262 40.1967 127.356 40.1424C127.383 27.2501 127.356 14.3308 127.356 1.41138Z" fill="#BDC7D5"/>
<path d="M51.9468 14.8466C55.4905 14.1681 59.3294 14.928 62.2555 17.0722C64.9132 18.9721 66.7656 21.9577 67.3293 25.2147C68.0542 28.9873 67.1414 33.1129 64.7253 36.0984C62.1213 39.4368 57.8529 41.2282 53.6918 40.9568C49.8797 40.7396 46.1751 38.8126 43.92 35.6642C41.3697 32.19 40.7523 27.4131 42.1482 23.3419C43.5442 18.9721 47.4905 15.6337 51.9468 14.8466ZM52.7522 20.0035C51.3026 20.3835 49.9603 21.2249 48.9938 22.4191C46.3898 25.5675 46.5509 30.6973 49.4234 33.6286C51.061 35.3113 53.5307 36.0984 55.8126 35.637C57.9334 35.257 59.7857 33.8185 60.8059 31.9186C62.5777 28.6888 62.0676 24.2376 59.3562 21.7134C57.6113 20.0849 55.0609 19.4064 52.7522 20.0035Z" fill="#BDC7D5"/>
<path d="M80.403 14.8465C84.4566 14.0594 88.8861 15.1994 91.9197 18.0764C96.8592 22.5547 97.3961 30.9414 93.1814 36.0983C90.6311 39.3553 86.4969 41.1466 82.4164 40.9566C78.5238 40.8481 74.6849 38.8939 72.3762 35.6641C69.7722 32.1085 69.2084 27.223 70.6849 23.0704C72.1614 18.8363 76.0272 15.6065 80.403 14.8465ZM81.2083 20.0034C79.7587 20.3834 78.4164 21.2248 77.45 22.3919C74.8728 25.486 74.9802 30.5343 77.7453 33.4927C79.3829 35.2569 81.9332 36.1255 84.2956 35.6369C86.3895 35.2298 88.2687 33.8184 89.2888 31.9185C91.0338 28.6615 90.5237 24.2103 87.7855 21.6862C86.0405 20.0577 83.4902 19.4063 81.2083 20.0034Z" fill="#BDC7D5"/>
<path d="M104.537 16.4207C107.624 14.4665 111.732 13.9237 115.061 15.6065C116.108 16.0679 116.967 16.855 117.799 17.6421C117.826 16.9093 117.799 16.1493 117.826 15.3893C119.624 15.4165 121.423 15.3893 123.248 15.4165V39.3553C123.222 42.9652 122.309 46.7921 119.732 49.4249C116.913 52.329 112.591 53.2247 108.698 52.6276C104.537 52.0033 100.913 48.9363 99.3023 45.0551C100.913 44.268 102.604 43.6437 104.269 42.9109C105.208 45.1365 107.114 47.0364 109.504 47.4707C111.893 47.9049 114.658 47.3078 116.215 45.2993C117.879 43.2366 117.879 40.4139 117.799 37.8897C116.564 39.1111 115.141 40.1967 113.423 40.6038C109.691 41.6624 105.584 40.3596 102.712 37.8083C99.8123 35.257 98.0942 31.3214 98.2553 27.4131C98.3358 22.989 100.806 18.7278 104.537 16.4207ZM110.094 19.8948C108.457 20.1663 106.926 21.0891 105.879 22.3647C103.356 25.4046 103.356 30.2629 105.906 33.2485C107.356 35.0127 109.691 35.9898 111.946 35.7455C114.067 35.5284 116.027 34.1713 117.074 32.2985C118.846 29.123 118.55 24.8075 116.161 22.039C114.685 20.3291 112.322 19.4877 110.094 19.8948Z" fill="#BDC7D5"/>
<path d="M140 17.8049C143.222 14.7651 148.188 13.7337 152.322 15.335C156.242 16.8278 158.738 20.6005 160 24.4817C154.175 26.9245 148.376 29.3401 142.55 31.7828C143.356 33.3299 144.591 34.7412 146.255 35.3112C148.591 36.1526 151.383 35.854 153.342 34.2798C154.121 33.6827 154.738 32.8956 155.329 32.1357C156.805 33.1399 158.282 34.117 159.758 35.1212C157.664 38.2968 154.148 40.5224 150.362 40.8752C146.175 41.3909 141.718 39.7624 139.007 36.4512C134.55 31.24 134.98 22.5004 140 17.8049ZM142.873 22.8261C141.96 24.156 141.584 25.7845 141.611 27.3859C145.503 25.7574 149.396 24.1289 153.289 22.4733C152.644 20.9533 151.087 20.0305 149.503 19.7862C146.953 19.3248 144.295 20.7091 142.873 22.8261Z" fill="#BDC7D5"/>
</svg>
