<svg width="20" height="18" viewBox="0 0 20 18" fill="none" xmlns="http://www.w3.org/2000/svg">
<path d="M19.9171 13.1633C19.7389 12.6047 19.1857 12.0158 18.3432 12.2676C18.2339 12.3004 18.1218 12.3262 18.0093 12.349C16.8532 12.5808 15.7011 12.8319 14.5404 13.0354C13.6011 13.1994 12.6554 13.0976 11.7161 12.9901C11.3621 12.9494 11.0096 12.8837 10.6614 12.8065C10.4293 12.7554 10.25 12.6108 10.1089 12.3751H10.3664C11.1157 12.3729 11.8654 12.384 12.6139 12.3637C13.0825 12.3504 13.4571 12.1283 13.6818 11.7079C13.7518 11.5765 13.8279 11.5465 13.9625 11.5469C15.4611 11.5504 16.9593 11.5504 18.4579 11.5483C19.2482 11.5472 19.7189 11.0765 19.7189 10.2894C19.72 7.4683 19.72 4.64651 19.7189 1.82544C19.7189 1.04294 19.2536 0.576511 18.4739 0.576511C15.2132 0.575082 11.9532 0.575082 8.69286 0.576511C8.57214 0.576868 8.44821 0.580797 8.33143 0.607582C7.76678 0.737939 7.43857 1.1833 7.43821 1.8158C7.43714 4.14401 7.43786 6.47294 7.43786 8.80187V9.05151C7.18678 9.07687 6.95178 9.09365 6.71964 9.1258C5.68071 9.26937 5.45321 9.58651 4.6325 10.2722C4.25964 10.5837 3.87393 10.879 3.49536 11.1844C3.21214 11.4133 2.89714 11.5915 2.53607 11.6333C1.90143 11.7072 1.26357 11.7583 0.625714 11.7972C0.613214 11.7976 0.601071 11.7987 0.588929 11.7997C0.32 11.8219 0.114643 11.9069 0.0128571 12.1687C0.00642857 12.1951 0.00285714 12.2226 0.000714286 12.2504C0 12.2565 0 12.2615 0 12.2669V16.9469C0 17.0108 0.0132143 17.0719 0.0367857 17.1279C0.0835714 17.2072 0.13 17.2694 0.179286 17.3158L0.180714 17.3172C0.27 17.4004 0.367857 17.4329 0.497143 17.4233C0.545 17.4197 0.5975 17.4101 0.655357 17.3947C0.656428 17.3947 0.656786 17.3944 0.6575 17.3944C0.695357 17.3844 0.735714 17.3722 0.778928 17.3579C0.826428 17.3422 0.873214 17.3262 0.920714 17.3112C1.83893 17.0051 2.76214 16.7154 3.67214 16.3883C4.62357 16.0458 4.845 16.0269 5.82286 16.2022C6.98357 16.4101 8.14643 16.6101 9.3025 16.8444C10.8657 17.1619 12.4221 17.1769 13.9793 16.8197C15.2304 16.5333 16.4489 16.1408 17.63 15.6422C18.2114 15.3969 18.7871 15.1208 19.3254 14.7933C19.9418 14.4169 20.1271 13.8212 19.9171 13.1633ZM12.4807 1.55687H14.6793V5.55401H12.4807V1.55687ZM8.40821 8.89544C8.40857 6.82365 8.40821 4.75151 8.40821 2.68008C8.40821 2.37615 8.41036 2.07294 8.40821 1.76901C8.40678 1.61901 8.4725 1.54473 8.62607 1.54473C9.55714 1.54615 10.4886 1.54615 11.4196 1.54723C11.4386 1.54723 11.4575 1.55615 11.4979 1.56615V5.87044C11.4982 6.37223 11.6614 6.53473 12.1646 6.53473C13.0957 6.53508 14.0271 6.53473 14.9589 6.53473C15.5075 6.53473 15.6589 6.38544 15.6589 5.84294V1.54508H17.3836C17.755 1.54508 18.1261 1.54973 18.4968 1.54294C18.6782 1.53973 18.7507 1.61365 18.75 1.7958C18.7475 4.63651 18.7475 7.47758 18.7504 10.319C18.7504 10.5154 18.665 10.5801 18.4807 10.5797C16.9629 10.5772 15.4443 10.5765 13.9257 10.5812C13.8071 10.5815 13.7654 10.5351 13.7279 10.434C13.5389 9.9233 13.1632 9.6358 12.6282 9.57401C11.275 9.4183 9.92107 9.26973 8.56607 9.1283C8.38714 9.10973 8.40821 9.00937 8.40821 8.89544ZM18.9468 13.8422C18.8386 13.9583 18.7046 14.059 18.5654 14.1351C17.4182 14.7633 16.1875 15.1815 14.9432 15.5651C13.8886 15.8901 12.8111 16.1001 11.7057 16.1279C10.8443 16.1501 10.0011 15.9833 9.15786 15.8308C8.05036 15.6304 6.94607 15.4097 5.83607 15.2258C4.84143 15.0608 4.5925 15.0576 3.61964 15.3962C2.81179 15.6772 1.9925 15.9254 1.17821 16.1879C1.11536 16.2087 1.05214 16.2276 0.977857 16.2512V12.7862C1.36 12.7544 1.74143 12.7279 2.12107 12.6912C2.87464 12.6169 3.57036 12.3958 4.15857 11.8933C4.42571 11.6658 4.72107 11.4708 4.97857 11.2337C5.92821 10.3619 6.34036 10.0433 7.58607 10.0344C8.20321 10.0297 8.82178 10.1308 9.43893 10.1954C10.3782 10.2937 11.3157 10.4012 12.2543 10.5051C12.3082 10.5108 12.3614 10.5215 12.4154 10.5229C12.8296 10.5347 12.8939 10.804 12.8332 11.2051C12.8221 11.2758 12.7029 11.3497 12.6179 11.3833C12.5346 11.4165 12.4318 11.4051 12.3379 11.4051C11.4336 11.4065 10.5293 11.4054 9.62428 11.4062C9.10714 11.4065 8.90107 11.6526 8.99286 12.1644C9.13 12.9312 9.6925 13.6447 10.7507 13.8247C12.3857 14.1029 14.0204 14.1958 15.6571 13.8426C16.6254 13.6337 17.5936 13.4269 18.5596 13.2072C18.7279 13.1694 18.8525 13.1783 18.9375 13.3344C19.0279 13.5015 19.095 13.6829 18.9468 13.8422Z" fill="#0C1928"/>
</svg>
