<svg width="75" height="70" viewBox="0 0 75 70" fill="none" xmlns="http://www.w3.org/2000/svg">
<path d="M71.2853 23.556C71.2385 23.5012 71.1917 23.445 71.1449 23.3903C71.03 23.2579 70.9304 23.147 70.8469 23.0575C70.7807 22.9853 70.7239 22.9271 70.6812 22.8844C70.617 22.8182 70.5816 22.7848 70.5816 22.7848C68.3529 20.5274 65.5322 19.2103 62.1274 18.838C61.6776 18.7873 61.5293 18.6529 61.5647 18.2266C61.6676 16.9836 61.4965 15.7527 61.2239 14.5525C60.283 10.4092 58.2575 6.89683 54.9108 4.22445C50.0077 0.311095 44.4992 -0.951255 38.4194 0.722077C32.6783 2.30386 28.7068 5.95258 26.3499 11.3916C26.122 11.9155 25.9329 12.4534 25.709 13.0295C23.5799 12.2055 21.4642 11.8627 19.273 12.416C18.8232 13.5888 18.2111 14.6915 17.8255 15.891C17.0757 18.2152 16.5337 20.5682 16.3373 23.0167C16.207 24.6412 16.2183 26.2464 16.3707 27.8576C16.4876 29.1046 16.7035 30.3395 16.9822 31.5604C17.0349 31.7943 17.0637 32.0336 17.1051 32.2695V32.2715C17.2354 32.2401 17.3664 32.2093 17.4947 32.1799C17.625 32.1505 17.756 32.1231 17.8863 32.1004C18.0614 32.067 18.2351 32.0403 18.4082 32.0189C18.4958 32.0068 18.5813 31.9995 18.6695 31.9915C18.7357 31.9855 18.7998 31.9815 18.864 31.9781C18.8954 31.9761 18.9281 31.9741 18.9595 31.9741C19.0377 31.9701 19.1132 31.9681 19.1914 31.9681C19.7 31.9681 20.2105 32.0383 20.7204 32.2194C20.7284 31.5898 20.7304 30.961 20.7478 30.3335C20.7672 29.5643 21.1902 29.0712 21.8384 29.0438C22.5047 29.0164 22.9878 29.5269 23.0152 30.3255C23.0366 30.8808 23.0172 31.4375 23.0192 31.9948C23.0212 32.4332 22.8482 32.7894 22.5227 33.0781C23.5919 34.1239 24.2488 35.3027 23.6835 36.8437C23.183 38.215 22.0884 38.92 20.7792 39.3704C20.6215 39.4272 20.4598 39.4754 20.3001 39.5282C20.9797 40.8914 21.946 42.0529 22.897 43.227C23.8693 44.4292 25.0301 45.4396 26.1227 46.5169H43.4962C44.3262 45.2799 45.1575 44.0429 45.9855 42.806C46.5816 41.9179 47.1756 41.0277 47.7677 40.1376H50.4949V36.1073C50.5764 35.9864 50.6606 35.8641 50.7422 35.7411L50.8204 35.6242C51.0776 35.2406 51.3349 34.8563 51.5955 34.4747C51.6617 34.3752 51.7279 34.2783 51.794 34.1827C51.9223 33.9996 52.0493 33.8165 52.1796 33.6354C52.2732 33.5031 52.3687 33.3708 52.4656 33.2398C52.4716 33.2318 52.4756 33.2264 52.479 33.2204C52.5899 33.0721 52.7008 32.9244 52.8138 32.78C52.9307 32.6263 53.0517 32.476 53.174 32.3283C54.0427 31.2764 55.128 30.5033 56.3569 30.0007C56.5788 29.9092 56.8067 29.8256 57.0406 29.7515C57.3018 29.6679 57.5685 29.5978 57.8411 29.5349C57.9327 29.5136 58.0242 29.4942 58.1158 29.4768C59.2806 29.2489 60.3986 29.2102 61.4645 29.3578C61.4858 29.3619 61.5052 29.3639 61.5246 29.3659C61.7157 29.3933 61.9028 29.426 62.0893 29.4674C62.1187 29.4735 62.1494 29.4795 62.1788 29.4868C62.4435 29.5436 62.7048 29.6131 62.962 29.6973C63.0302 29.7187 63.0984 29.7421 63.1665 29.7655C63.2347 29.7889 63.3029 29.8123 63.369 29.8377C63.5033 29.8885 63.6377 29.9406 63.77 29.9974C63.8361 30.0268 63.9023 30.0555 63.9684 30.0849C64.1649 30.1745 64.3621 30.272 64.5545 30.377C64.6828 30.4471 64.8138 30.5213 64.9401 30.5968C65.0664 30.675 65.1934 30.7525 65.3183 30.8367C65.3183 30.8367 65.3183 30.8367 65.3203 30.8387C65.4293 30.9109 65.5382 30.9871 65.6478 31.0646C65.726 31.1214 65.8055 31.1795 65.8837 31.2397C65.9498 31.2905 66.016 31.3413 66.0822 31.3954C66.1136 31.4188 66.1423 31.4442 66.1737 31.4696C66.2399 31.5203 66.304 31.5745 66.3682 31.6313C66.419 31.672 66.4698 31.7168 66.5199 31.7616C66.5473 31.785 66.5727 31.8084 66.5994 31.8318C66.6268 31.8572 66.6542 31.8825 66.6809 31.9099C66.7083 31.9353 66.7357 31.9607 66.7625 31.9881C67.1327 32.3584 67.4481 32.7987 67.7461 33.2311C69.1562 35.29 70.5395 37.365 71.9442 39.4272C72.0337 39.5556 72.0959 39.7193 72.2108 39.8342C72.2282 39.8516 72.2476 39.8676 72.269 39.885H72.271C77.2495 32.0396 73.0595 25.6891 71.2853 23.556ZM35.4075 33.0079C34.5488 33.898 33.3252 34.4166 31.7982 34.4199C30.7597 34.3946 29.6204 33.9348 28.6955 32.9805C28.1562 32.4232 28.1114 31.7783 28.5652 31.2992C29.033 30.8066 29.6524 30.822 30.2425 31.3399C31.4908 32.4345 32.6362 32.4426 33.8618 31.3633C34.4639 30.8314 35.062 30.8006 35.5392 31.2758C36.035 31.7709 35.9862 32.4078 35.4075 33.0079Z" fill="url(#paint0_linear_1_136)"/>
<path d="M45.0218 39.6117C47.6644 39.6117 49.8066 37.9039 49.8066 35.7972C49.8066 33.6906 47.6644 31.9828 45.0218 31.9828C42.3793 31.9828 40.2371 33.6906 40.2371 35.7972C40.2371 37.9039 42.3793 39.6117 45.0218 39.6117Z" fill="#F88797"/>
<path d="M42.5191 33.2311H41.9738C41.5013 33.2311 41.1184 32.8482 41.1184 32.3757V29.8971C41.1184 29.4247 41.5013 29.0417 41.9738 29.0417H42.5191C42.9916 29.0417 43.3745 29.4247 43.3745 29.8971V32.3757C43.3745 32.8482 42.9916 33.2311 42.5191 33.2311Z" fill="#0C1928"/>
<path d="M20.2987 39.5283C20.979 40.8915 21.9459 42.0516 22.8962 43.2278C23.8679 44.4293 25.028 45.4397 26.1213 46.5183C21.14 46.5203 16.1521 46.6814 11.1795 46.4789C6.49034 46.2871 3.02205 43.894 1.03998 39.5964C-0.995551 35.1839 0.0242195 29.8779 3.51055 26.5285C5.35028 24.7603 7.52882 23.5908 10.123 23.3342C10.1711 23.3296 10.2199 23.3222 10.2667 23.3108C10.522 23.2494 10.7766 23.1859 11.0185 23.1264C11.213 17.5638 13.8118 13.8863 19.2722 12.4161C18.8225 13.5883 18.2117 14.6909 17.8248 15.8911C17.0756 18.2147 16.5337 20.5696 16.3365 23.0181C16.2056 24.6427 16.2176 26.2472 16.3693 27.8584C16.4869 29.1054 16.7034 30.339 16.9814 31.5612C17.0349 31.7951 17.0636 32.0344 17.1037 32.2709C16.1835 32.7253 15.3108 33.2493 14.7648 34.1561C13.6381 36.0279 14.6391 38.3347 16.9527 39.2142C18.0373 39.6258 19.1526 39.7555 20.2987 39.5283Z" fill="#5AD0FF"/>
<path d="M20.2986 39.5283C19.1519 39.7562 18.0365 39.6258 16.9533 39.2135C14.6398 38.3341 13.6387 36.0272 14.7654 34.1554C15.3114 33.2479 16.1841 32.7247 17.1043 32.2703C18.3058 31.9769 19.5087 31.7904 20.7196 32.2188C21.1159 33.2319 21.5516 33.4397 22.5219 33.0782C23.5911 34.1234 24.2467 35.3015 23.682 36.8432C23.1808 38.2138 22.0862 38.9182 20.7784 39.3699C20.62 39.4254 20.459 39.4755 20.2986 39.5283Z" fill="#F88797"/>
<path d="M31.7988 34.4206C30.7597 34.3939 29.6203 33.9341 28.6954 32.9805C28.1548 32.4231 28.1107 31.7776 28.5644 31.2991C29.0316 30.8066 29.6504 30.8213 30.2411 31.3399C31.4894 32.4352 32.6355 32.4432 33.8604 31.3633C34.4632 30.832 35.0606 30.8006 35.5371 31.2757C36.0336 31.7702 35.9855 32.4078 35.4068 33.0072C34.5481 33.8973 33.3258 34.4166 31.7988 34.4206Z" fill="#0C1928"/>
<path d="M22.5228 33.0788C21.5524 33.4397 21.1167 33.2318 20.7205 32.2194C20.7291 31.5906 20.7312 30.9617 20.7472 30.3329C20.7672 29.5631 21.1902 29.0706 21.8391 29.0432C22.5047 29.0158 22.9879 29.527 23.0159 30.3242C23.036 30.8802 23.0179 31.4376 23.02 31.9942C23.0213 32.4339 22.8462 32.7901 22.5228 33.0788Z" fill="#0C1928"/>
<path d="M72.273 39.8845C71.5346 41.0493 70.4259 42.4205 69.2451 43.6421C69.1829 43.6268 69.1943 43.5045 69.1475 43.4751C69.1007 43.4477 69.1482 43.3514 69.1128 43.312C68.9938 43.1817 68.9437 42.9953 68.8441 42.8509C67.2042 40.4552 65.599 38.0314 63.9237 35.659C62.0826 33.0488 57.9574 33.1283 56.1531 35.78C54.2733 38.5419 52.4149 41.3179 50.5431 44.0859C49.9877 44.9078 49.423 45.7238 48.8637 46.5424H48.8617C47.0714 46.5344 45.2852 46.527 43.4949 46.519V46.517C44.3249 45.28 45.1562 44.0431 45.9842 42.8061C46.5802 41.918 47.1743 41.0279 47.7664 40.1378C47.7764 40.1257 47.7838 40.1124 47.7918 40.101C47.856 40.0054 47.9221 39.9119 47.9923 39.8203L48.6819 38.7959L49.6736 37.327L49.9115 36.9722L49.9135 36.9682C49.9503 36.9 49.9897 36.8319 50.0325 36.7717C50.1882 36.5518 50.3419 36.3293 50.4943 36.1075C50.5758 35.9865 50.66 35.8642 50.7415 35.7412L50.8197 35.6243L51.3984 34.7669C51.5307 34.5725 51.6617 34.3753 51.794 34.1829C51.9223 33.9997 52.0493 33.8166 52.1796 33.6355C52.2732 33.5032 52.3688 33.3709 52.4656 33.2399C52.4717 33.2319 52.4757 33.2266 52.479 33.2206C52.5899 33.0722 52.7009 32.9245 52.8138 32.7802C52.9308 32.6265 53.0517 32.4761 53.174 32.3284C54.0427 31.2766 55.128 30.5034 56.3569 30.0009C56.5788 29.9093 56.8067 29.8258 57.0406 29.7516C57.3894 29.6407 57.7476 29.5511 58.1158 29.4789C59.2806 29.2511 60.3986 29.2123 61.4645 29.358C61.4859 29.362 61.5053 29.364 61.5246 29.366C61.7158 29.3954 61.9029 29.4282 62.0893 29.4676C62.1187 29.4736 62.1495 29.4796 62.1789 29.487C62.4422 29.5451 62.7048 29.6153 62.9621 29.6975C63.0302 29.7188 63.0984 29.7422 63.1666 29.7656C63.2347 29.789 63.3029 29.8124 63.369 29.8378C63.5034 29.8886 63.6377 29.9407 63.77 29.9975C63.8362 30.0269 63.9023 30.0557 63.9685 30.0851C64.1649 30.1746 64.3621 30.2722 64.5545 30.3771C64.6828 30.4473 64.8138 30.5214 64.9401 30.5969C65.0664 30.6751 65.1934 30.7527 65.3184 30.8369C65.3184 30.8369 65.3184 30.8369 65.3204 30.8389C65.7588 31.1289 66.1851 31.4624 66.6001 31.8346C66.6549 31.8834 66.709 31.9362 66.7638 31.9883C67.134 32.3585 67.4495 32.7989 67.7475 33.2312C69.1575 35.2902 70.5408 37.3651 71.9455 39.4274C72.0351 39.5557 72.0972 39.7194 72.2122 39.8344C72.2316 39.8531 72.2509 39.8684 72.273 39.8845Z" fill="#5AD0FF"/>
<path d="M72.9057 48.8852C72.2668 47.9483 71.618 47.0154 70.9891 46.0725H70.9911L70.8802 45.9068C70.7125 45.6535 70.5454 45.4022 70.3817 45.1469C70.3075 45.034 70.228 44.9231 70.1458 44.8141L69.5811 43.9748L69.1133 43.2792L68.981 43.0827C68.9362 43.0025 68.8955 42.923 68.8447 42.8508C68.2292 41.9506 67.6197 41.0492 67.0076 40.147L66.9435 40.0514C65.9484 38.5806 64.9487 37.1097 63.9242 35.6589C62.0832 33.0487 57.958 33.1282 56.1537 35.7799C54.2738 38.5418 52.4154 41.3178 50.5436 44.0857C49.9883 44.9077 49.4236 45.7223 48.8642 46.5403C48.3109 47.3683 47.7402 48.1822 47.2123 49.0242C46.0535 50.8633 46.9744 53.0625 49.0921 53.5671C49.9081 53.7602 50.7361 53.6312 51.556 53.6566C52.3466 53.682 53.1378 53.6626 53.9831 53.6626V54.6463C53.9831 58.7742 53.9811 62.9021 53.9831 67.0313C53.9851 68.8195 55.1499 69.9943 56.9302 69.9977C59.0185 70.0017 61.1068 69.9997 63.1945 69.9977C65.0783 69.9957 66.2298 68.8443 66.2298 66.9551C66.2318 62.8272 66.2297 58.698 66.2358 54.5701C66.2358 54.2895 66.1522 53.9894 66.3781 53.6626C67.6732 53.6626 69.0037 53.6727 70.3362 53.6586C71.6046 53.6486 72.5936 53.1113 73.1844 51.9739C73.7377 50.9054 73.574 49.8656 72.9057 48.8852Z" fill="url(#paint1_linear_1_136)"/>
<defs>
<linearGradient id="paint0_linear_1_136" x1="44.9076" y1="-0.284273" x2="45.4365" y2="46.5169" gradientUnits="userSpaceOnUse">
<stop stop-color="#86FFCC"/>
<stop offset="1" stop-color="#03A9F4"/>
</linearGradient>
<linearGradient id="paint1_linear_1_136" x1="59.8696" y1="33.5239" x2="60.569" y2="69.9912" gradientUnits="userSpaceOnUse">
<stop stop-color="#86FFCC"/>
<stop offset="1" stop-color="#03A9F4"/>
</linearGradient>
</defs>
</svg>
