<svg width="20" height="20" viewBox="0 0 20 20" fill="none" xmlns="http://www.w3.org/2000/svg">
<g opacity="0.7">
<path d="M10.0022 4.0083C10.0011 4.0083 9.99966 4.0083 9.99823 4.0083C8.49216 4.01044 7.26609 5.23759 7.26501 6.74366C7.26466 7.47509 7.55037 8.1633 8.07037 8.68152C8.58859 9.1983 9.27502 9.48223 10.0047 9.48223C10.0079 9.48223 10.0114 9.48223 10.015 9.48223C11.52 9.47652 12.7418 8.24509 12.7389 6.73687C12.7361 5.23152 11.5089 4.0083 10.0022 4.0083ZM10.0022 8.54687C9.01394 8.54687 8.20644 7.7458 8.20073 6.75759C8.19787 6.27509 8.38466 5.81973 8.72644 5.4758C9.06787 5.13223 9.52073 4.9433 10.0022 4.9433C10.0022 4.9433 10.0025 4.9433 10.0029 4.9433C10.9929 4.94366 11.8007 5.75044 11.8036 6.74152C11.8064 7.73294 11.0018 8.54294 10.01 8.54687C10.0072 8.54687 10.0047 8.54687 10.0022 8.54687Z" fill="#0C1928"/>
<path d="M16.1957 16.0607C15.9854 15.8329 15.7171 15.6179 15.3979 15.4211C14.7018 14.9922 13.9432 14.7854 13.2929 14.6386C13.0907 14.5936 12.8871 14.5543 12.6764 14.5139L12.5964 14.4986L12.8975 14.1114C13.0736 13.8832 13.2514 13.6561 13.4293 13.4293C14.1086 12.5622 14.8111 11.6654 15.41 10.7104C16.3507 9.21073 16.7404 7.70787 16.6011 6.11644C16.3589 3.35823 14.4082 1.03144 11.7468 0.325372C11.5032 0.261087 11.2507 0.216801 11.015 0.17823L10.7936 0.142158C10.5968 0.113587 10.3957 0.0950153 10.1904 0.0871582H9.69965C9.56536 0.0921582 9.43286 0.102158 9.31536 0.116087C9.30715 0.116087 9.28286 0.116087 9.25679 0.12323C9.10893 0.145015 8.96143 0.169658 8.81465 0.196444L8.81501 0.19573C8.80322 0.197872 8.79358 0.199658 8.78215 0.201801C8.75251 0.207158 8.72215 0.21073 8.69251 0.216444L8.64822 0.22573L8.60001 0.236444C5.13501 0.986444 2.83572 4.44073 3.47429 7.9368C3.67751 9.04787 4.14322 10.1161 4.85822 11.1111C5.43286 11.9104 6.04143 12.7043 6.63001 13.4722C6.88322 13.8025 7.13643 14.1325 7.38786 14.4639L7.41465 14.5C6.54679 14.6479 5.84965 14.8407 5.22643 15.1061C4.72286 15.3197 4.15143 15.6104 3.72965 16.1443C3.24929 16.7522 3.25501 17.4872 3.74393 18.0632C3.94822 18.3032 4.20072 18.5229 4.47429 18.6979C5.38643 19.2825 6.41251 19.5218 7.29643 19.6789C8.17001 19.8347 9.06751 19.9129 9.98001 19.9129C10.65 19.9129 11.3289 19.8707 12.0121 19.7864C13.1811 19.6425 14.1104 19.4 14.9364 19.0239C15.4943 18.7711 15.895 18.4936 16.1964 18.1511C16.7775 17.4914 16.7771 16.6907 16.1957 16.0607ZM6.34608 11.4322C5.79822 10.7118 5.18643 9.84251 4.80143 8.85501C4.55679 8.22787 4.42286 7.57609 4.40358 6.91716C4.32822 4.41216 5.88572 2.19216 8.27822 1.39359C8.83536 1.20752 9.41251 1.11609 9.99001 1.11609C11.0018 1.11609 12.0139 1.39787 12.9132 1.94859C14.3304 2.81644 15.2829 4.23644 15.5257 5.84466C15.5425 5.95609 15.5564 6.06787 15.5671 6.17716C15.7029 7.57073 15.3496 8.91001 14.5175 10.1579C13.975 10.9711 13.3732 11.7675 12.7914 12.5379C12.6214 12.7632 12.4511 12.9886 12.2818 13.2147C11.7639 13.9079 11.2386 14.5957 10.7132 15.2832L10.0032 16.2143C9.92822 16.1107 9.85643 16.0114 9.78179 15.9147L8.66322 14.4586C7.88929 13.4511 7.11501 12.4436 6.34608 11.4322ZM15.3679 17.5318C15.0407 17.8579 14.6236 18.0457 14.2218 18.2004C13.4175 18.5089 12.5371 18.7032 11.5293 18.7939C11.1021 18.8325 10.6754 18.8529 10.3321 18.8686C10.2014 18.8747 10.0839 18.8804 9.99715 18.8854C8.34965 18.8307 6.98751 18.6857 5.69358 18.1554C5.33465 18.0093 4.98929 17.8086 4.69465 17.5757C4.50536 17.4261 4.40715 17.2754 4.40215 17.1279C4.39715 16.9725 4.49393 16.8047 4.69001 16.6279C5.08893 16.2686 5.60393 16.0136 6.31001 15.8247C6.69501 15.7218 7.09501 15.6422 7.48215 15.5657C7.67893 15.5268 7.87572 15.4875 8.07143 15.4457C8.08465 15.4425 8.09643 15.4407 8.10679 15.4407C8.13465 15.4407 8.15501 15.4543 8.18858 15.5014C8.43858 15.8457 8.69108 16.1882 8.94358 16.5311C9.13251 16.7879 9.32179 17.0443 9.50965 17.3018C9.66322 17.5125 9.82822 17.6189 10.0004 17.6193C10.0007 17.6193 10.0007 17.6193 10.0011 17.6193C10.1739 17.6193 10.3404 17.5114 10.4968 17.2989C10.9364 16.6993 11.3771 16.1 11.8246 15.5061C11.845 15.4789 11.8954 15.4511 11.9093 15.4493C12.7904 15.5668 13.8143 15.7525 14.7311 16.2361C14.9586 16.3557 15.1793 16.5118 15.3693 16.6864C15.5175 16.8222 15.5939 16.9579 15.5968 17.09C15.5996 17.2289 15.5225 17.3772 15.3679 17.5318Z" fill="#0C1928"/>
</g>
</svg>
