<svg width="20" height="20" viewBox="0 0 20 20" fill="none" xmlns="http://www.w3.org/2000/svg">
<g opacity="0.7" clip-path="url(#clip0_1_1092)">
<path d="M19.9171 14.1633C19.7389 13.6047 19.1857 13.0158 18.3432 13.2676C18.2339 13.3004 18.1218 13.3262 18.0093 13.349C16.8532 13.5808 15.7011 13.8319 14.5404 14.0354C13.6011 14.1994 12.6554 14.0976 11.7161 13.9901C11.3621 13.9494 11.0096 13.8837 10.6614 13.8065C10.4293 13.7554 10.25 13.6108 10.1089 13.3751H10.3664C11.1157 13.3729 11.8654 13.384 12.6139 13.3637C13.0825 13.3504 13.4571 13.1283 13.6818 12.7079C13.7518 12.5765 13.8279 12.5465 13.9625 12.5469C15.4611 12.5504 16.9593 12.5504 18.4579 12.5483C19.2482 12.5472 19.7189 12.0765 19.7189 11.2894C19.72 8.4683 19.72 5.64651 19.7189 2.82544C19.7189 2.04294 19.2536 1.57651 18.4739 1.57651C15.2132 1.57508 11.9532 1.57508 8.69286 1.57651C8.57214 1.57687 8.44821 1.5808 8.33143 1.60758C7.76678 1.73794 7.43857 2.1833 7.43821 2.8158C7.43714 5.14401 7.43786 7.47294 7.43786 9.80187V10.0515C7.18678 10.0769 6.95179 10.0937 6.71964 10.1258C5.68071 10.2694 5.45321 10.5865 4.6325 11.2722C4.25964 11.5837 3.87393 11.879 3.49536 12.1844C3.21214 12.4133 2.89714 12.5915 2.53607 12.6333C1.90143 12.7072 1.26357 12.7583 0.625714 12.7972C0.613214 12.7976 0.601071 12.7987 0.588929 12.7997C0.32 12.8219 0.114643 12.9069 0.0128571 13.1687C0.00642857 13.1951 0.00285714 13.2226 0.000714286 13.2504C0 13.2565 0 13.2615 0 13.2669V17.9469C0 18.0108 0.0132143 18.0719 0.0367857 18.1279C0.0835714 18.2072 0.13 18.2694 0.179286 18.3158L0.180714 18.3172C0.27 18.4004 0.367857 18.4329 0.497143 18.4233C0.545 18.4197 0.5975 18.4101 0.655357 18.3947C0.656429 18.3947 0.656786 18.3944 0.6575 18.3944C0.695357 18.3844 0.735714 18.3722 0.778928 18.3579C0.826428 18.3422 0.873214 18.3262 0.920714 18.3112C1.83893 18.0051 2.76214 17.7154 3.67214 17.3883C4.62357 17.0458 4.845 17.0269 5.82286 17.2022C6.98357 17.4101 8.14643 17.6101 9.3025 17.8444C10.8657 18.1619 12.4221 18.1769 13.9793 17.8197C15.2304 17.5333 16.4489 17.1408 17.63 16.6422C18.2114 16.3969 18.7871 16.1208 19.3254 15.7933C19.9418 15.4169 20.1271 14.8212 19.9171 14.1633ZM12.4807 2.55687H14.6793V6.55401H12.4807V2.55687ZM8.40821 9.89544C8.40857 7.82365 8.40821 5.75151 8.40821 3.68008C8.40821 3.37615 8.41036 3.07294 8.40821 2.76901C8.40678 2.61901 8.4725 2.54473 8.62607 2.54473C9.55714 2.54615 10.4886 2.54615 11.4196 2.54723C11.4386 2.54723 11.4575 2.55615 11.4979 2.56615V6.87044C11.4982 7.37223 11.6614 7.53473 12.1646 7.53473C13.0957 7.53508 14.0271 7.53473 14.9589 7.53473C15.5075 7.53473 15.6589 7.38544 15.6589 6.84294V2.54508H17.3836C17.755 2.54508 18.1261 2.54973 18.4968 2.54294C18.6782 2.53973 18.7507 2.61365 18.75 2.7958C18.7475 5.63651 18.7475 8.47758 18.7504 11.319C18.7504 11.5154 18.665 11.5801 18.4807 11.5797C16.9629 11.5772 15.4443 11.5765 13.9257 11.5812C13.8071 11.5815 13.7654 11.5351 13.7279 11.434C13.5389 10.9233 13.1632 10.6358 12.6282 10.574C11.275 10.4183 9.92107 10.2697 8.56607 10.1283C8.38714 10.1097 8.40821 10.0094 8.40821 9.89544ZM18.9468 14.8422C18.8386 14.9583 18.7046 15.059 18.5654 15.1351C17.4182 15.7633 16.1875 16.1815 14.9432 16.5651C13.8886 16.8901 12.8111 17.1001 11.7057 17.1279C10.8443 17.1501 10.0011 16.9833 9.15786 16.8308C8.05036 16.6304 6.94607 16.4097 5.83607 16.2258C4.84143 16.0608 4.5925 16.0576 3.61964 16.3962C2.81179 16.6772 1.9925 16.9254 1.17821 17.1879C1.11536 17.2087 1.05214 17.2276 0.977857 17.2512V13.7862C1.36 13.7544 1.74143 13.7279 2.12107 13.6912C2.87464 13.6169 3.57036 13.3958 4.15857 12.8933C4.42571 12.6658 4.72107 12.4708 4.97857 12.2337C5.92821 11.3619 6.34036 11.0433 7.58607 11.0344C8.20321 11.0297 8.82178 11.1308 9.43893 11.1954C10.3782 11.2937 11.3157 11.4012 12.2543 11.5051C12.3082 11.5108 12.3614 11.5215 12.4154 11.5229C12.8296 11.5347 12.8939 11.804 12.8332 12.2051C12.8221 12.2758 12.7029 12.3497 12.6179 12.3833C12.5346 12.4165 12.4318 12.4051 12.3379 12.4051C11.4336 12.4065 10.5293 12.4054 9.62428 12.4062C9.10714 12.4065 8.90107 12.6526 8.99286 13.1644C9.13 13.9312 9.6925 14.6447 10.7507 14.8247C12.3857 15.1029 14.0204 15.1958 15.6571 14.8426C16.6254 14.6337 17.5936 14.4269 18.5596 14.2072C18.7279 14.1694 18.8525 14.1783 18.9375 14.3344C19.0279 14.5015 19.095 14.6829 18.9468 14.8422Z" fill="#0C1928"/>
</g>
<defs>
<clipPath id="clip0_1_1092">
<rect width="20" height="20" fill="white"/>
</clipPath>
</defs>
</svg>
