<svg width="16" height="16" viewBox="0 0 16 16" fill="none" xmlns="http://www.w3.org/2000/svg">
<g opacity="0.7">
<path d="M6.20386 7.56273C6.24161 7.41173 6.27187 7.27744 6.31048 7.14546C6.31913 7.11635 6.35256 7.08379 6.38195 7.07342C6.91997 6.88207 7.44848 6.657 8.04126 6.69274C8.54614 6.723 9.00981 7.025 9.08906 7.47542C9.13833 7.75668 9.12047 8.06762 9.05592 8.34743C8.90981 8.97997 8.71068 9.60041 8.54441 10.2286C8.49743 10.4067 8.4764 10.5943 8.4666 10.7788C8.45248 11.0445 8.56717 11.1808 8.83114 11.2306C9.10606 11.2825 9.37464 11.2473 9.6363 11.1508C9.65388 11.1442 9.67319 11.1424 9.71612 11.1329C9.67895 11.2776 9.64927 11.4067 9.61065 11.5329C9.60229 11.5606 9.56598 11.5891 9.53659 11.5992C9.21095 11.7119 8.89022 11.8508 8.55565 11.9245C8.07958 12.0294 7.60179 12.0277 7.1727 11.7317C6.86032 11.5162 6.72603 11.2179 6.7462 10.8427C6.78251 10.1681 7.05224 9.55056 7.21218 8.90591C7.29143 8.58662 7.3724 8.26386 7.40583 7.93765C7.44301 7.5757 7.25223 7.40741 6.87991 7.42038C6.76724 7.42441 6.65427 7.44257 6.54361 7.46562C6.43526 7.48867 6.32979 7.52614 6.20386 7.56273Z" fill="#0C1928"/>
<path d="M8.41193 4.0293C8.96378 4.02786 9.37703 4.44744 9.36723 4.98546C9.36002 5.3794 9.08914 5.72088 8.69059 5.83875C8.25199 5.96814 7.76181 5.75229 7.5719 5.34626C7.3039 4.77279 7.67997 4.10509 8.31049 4.03564C8.34824 4.03189 8.38657 4.03103 8.41193 4.0293Z" fill="#0C1928"/>
<path d="M8 0C3.58892 0 0 3.58892 0 8C0 12.4114 3.58892 16 8 16C12.4114 16 16 12.4114 16 8C16 3.58892 12.4114 0 8 0ZM8 15.0801C6.109 15.0801 4.33097 14.3436 2.99355 13.0064C1.65614 11.6693 0.919851 9.89129 0.919851 8C0.919851 6.10871 1.65642 4.33068 2.99355 2.99355C4.33068 1.65614 6.10871 0.919851 8 0.919851C9.89129 0.919851 11.669 1.65642 13.0064 2.99355C14.3439 4.33068 15.0801 6.109 15.0801 8C15.0801 9.891 14.3436 11.669 13.0064 13.0064C11.6693 14.3439 9.891 15.0801 8 15.0801Z" fill="#0C1928"/>
</g>
</svg>
