<svg width="104" height="15" viewBox="0 0 104 15" fill="none" xmlns="http://www.w3.org/2000/svg">
<path d="M12.5667 9.33095C12.3622 9.5291 12.2683 9.81566 12.3149 10.0967L13.0167 13.9806C13.0759 14.3098 12.9369 14.643 12.6614 14.8332C12.3914 15.0306 12.0323 15.0543 11.7378 14.8964L8.24146 13.0728C8.11989 13.0081 7.98489 12.9733 7.84675 12.9694H7.63281C7.55861 12.9804 7.48598 13.0041 7.41967 13.0404L3.92253 14.8727C3.74965 14.9595 3.55388 14.9903 3.36205 14.9595C2.89471 14.8711 2.58289 14.4259 2.65946 13.9562L3.36205 10.0722C3.40862 9.78882 3.31468 9.50068 3.11022 9.29938L0.259621 6.5364C0.0212163 6.3051 -0.0616729 5.95776 0.0472672 5.64436C0.15305 5.33175 0.423032 5.10361 0.749062 5.05229L4.67248 4.48312C4.97089 4.45233 5.23297 4.27077 5.36718 4.00236L7.09601 0.457864C7.13706 0.378922 7.18995 0.306295 7.25389 0.24472L7.32494 0.189461C7.36204 0.148411 7.40467 0.114466 7.45204 0.0868363L7.53808 0.0552595L7.67228 0H8.00463C8.30145 0.0307874 8.56275 0.208407 8.69932 0.473653L10.451 4.00236C10.5774 4.2605 10.8229 4.4397 11.1063 4.48312L15.0297 5.05229C15.3612 5.09966 15.6383 5.32859 15.7481 5.64436C15.8515 5.96092 15.7623 6.30826 15.5191 6.5364L12.5667 9.33095Z" fill="#FFB23E"/>
<path d="M34.5154 9.33095C34.3109 9.5291 34.217 9.81566 34.2635 10.0967L34.9653 13.9806C35.0245 14.3098 34.8856 14.643 34.6101 14.8332C34.3401 15.0306 33.9809 15.0543 33.6865 14.8964L30.1901 13.0728C30.0686 13.0081 29.9336 12.9733 29.7954 12.9694H29.5815C29.5073 12.9804 29.4347 13.0041 29.3683 13.0404L25.8712 14.8727C25.6983 14.9595 25.5025 14.9903 25.3107 14.9595C24.8434 14.8711 24.5316 14.4259 24.6081 13.9562L25.3107 10.0722C25.3573 9.78882 25.2634 9.50068 25.0589 9.29938L22.2083 6.5364C21.9699 6.3051 21.887 5.95776 21.9959 5.64436C22.1017 5.33175 22.3717 5.10361 22.6977 5.05229L26.6212 4.48312C26.9196 4.45233 27.1816 4.27077 27.3158 4.00236L29.0447 0.457864C29.0857 0.378922 29.1386 0.306295 29.2026 0.24472L29.2736 0.189461C29.3107 0.148411 29.3533 0.114466 29.4007 0.0868363L29.4868 0.0552595L29.621 0H29.9533C30.2501 0.0307874 30.5114 0.208407 30.648 0.473653L32.3997 4.00236C32.526 4.2605 32.7715 4.4397 33.0549 4.48312L36.9784 5.05229C37.3099 5.09966 37.587 5.32859 37.6967 5.64436C37.8001 5.96092 37.7109 6.30826 37.4678 6.5364L34.5154 9.33095Z" fill="#FFB23E"/>
<path d="M56.4641 9.33095C56.2596 9.5291 56.1657 9.81566 56.2123 10.0967L56.9141 13.9806C56.9733 14.3098 56.8343 14.643 56.5588 14.8332C56.2888 15.0306 55.9297 15.0543 55.6352 14.8964L52.1389 13.0728C52.0173 13.0081 51.8823 12.9733 51.7441 12.9694H51.5302C51.456 12.9804 51.3834 13.0041 51.3171 13.0404L47.8199 14.8727C47.6471 14.9595 47.4513 14.9903 47.2594 14.9595C46.7921 14.8711 46.4803 14.4259 46.5569 13.9562L47.2594 10.0722C47.306 9.78882 47.2121 9.50068 47.0076 9.29938L44.157 6.5364C43.9186 6.3051 43.8357 5.95776 43.9447 5.64436C44.0504 5.33175 44.3204 5.10361 44.6465 5.05229L48.5699 4.48312C48.8683 4.45233 49.1304 4.27077 49.2646 4.00236L50.9934 0.457864C51.0345 0.378922 51.0873 0.306295 51.1513 0.24472L51.2223 0.189461C51.2594 0.148411 51.3021 0.114466 51.3494 0.0868363L51.4355 0.0552595L51.5697 0H51.902C52.1989 0.0307874 52.4602 0.208407 52.5967 0.473653L54.3484 4.00236C54.4748 4.2605 54.7203 4.4397 55.0037 4.48312L58.9271 5.05229C59.2586 5.09966 59.5357 5.32859 59.6455 5.64436C59.7489 5.96092 59.6597 6.30826 59.4165 6.5364L56.4641 9.33095Z" fill="#FFB23E"/>
<path d="M78.4128 9.33095C78.2083 9.5291 78.1144 9.81566 78.1609 10.0967L78.8627 13.9806C78.9219 14.3098 78.783 14.643 78.5075 14.8332C78.2375 15.0306 77.8783 15.0543 77.5839 14.8964L74.0875 13.0728C73.966 13.0081 73.831 12.9733 73.6928 12.9694H73.4789C73.4047 12.9804 73.3321 13.0041 73.2657 13.0404L69.7686 14.8727C69.5957 14.9595 69.3999 14.9903 69.2081 14.9595C68.7408 14.8711 68.429 14.4259 68.5055 13.9562L69.2081 10.0722C69.2547 9.78882 69.1607 9.50068 68.9563 9.29938L66.1057 6.5364C65.8673 6.3051 65.7844 5.95776 65.8933 5.64436C65.9991 5.33175 66.2691 5.10361 66.5951 5.05229L70.5186 4.48312C70.817 4.45233 71.079 4.27077 71.2132 4.00236L72.9421 0.457864C72.9831 0.378922 73.036 0.306295 73.1 0.24472L73.171 0.189461C73.2081 0.148411 73.2507 0.114466 73.2981 0.0868363L73.3842 0.0552595L73.5184 0H73.8507C74.1475 0.0307874 74.4088 0.208407 74.5454 0.473653L76.2971 4.00236C76.4234 4.2605 76.6689 4.4397 76.9523 4.48312L80.8758 5.05229C81.2073 5.09966 81.4844 5.32859 81.5941 5.64436C81.6975 5.96092 81.6083 6.30826 81.3652 6.5364L78.4128 9.33095Z" fill="#FFB23E"/>
<path opacity="0.1" d="M100.361 9.33095C100.157 9.5291 100.063 9.81566 100.11 10.0967L100.811 13.9806C100.871 14.3098 100.732 14.643 100.456 14.8332C100.186 15.0306 99.827 15.0543 99.5325 14.8964L96.0362 13.0728C95.9146 13.0081 95.7796 12.9733 95.6415 12.9694H95.4276C95.3533 12.9804 95.2807 13.0041 95.2144 13.0404L91.7173 14.8727C91.5444 14.9595 91.3486 14.9903 91.1568 14.9595C90.6894 14.8711 90.3776 14.4259 90.4542 13.9562L91.1568 10.0722C91.2034 9.78882 91.1094 9.50068 90.905 9.29938L88.0544 6.5364C87.816 6.3051 87.7331 5.95776 87.842 5.64436C87.9478 5.33175 88.2178 5.10361 88.5438 5.05229L92.4672 4.48312C92.7656 4.45233 93.0277 4.27077 93.1619 4.00236L94.8907 0.457864C94.9318 0.378922 94.9847 0.306295 95.0486 0.24472L95.1197 0.189461C95.1568 0.148411 95.1994 0.114466 95.2468 0.0868363L95.3328 0.0552595L95.467 0H95.7994C96.0962 0.0307874 96.3575 0.208407 96.4941 0.473653L98.2458 4.00236C98.3721 4.2605 98.6176 4.4397 98.901 4.48312L102.824 5.05229C103.156 5.09966 103.433 5.32859 103.543 5.64436C103.646 5.96092 103.557 6.30826 103.314 6.5364L100.361 9.33095Z" fill="#0C1928"/>
<path fill-rule="evenodd" clip-rule="evenodd" d="M95.4544 12.9694V0.00512713L95.3326 0.0552461L95.2466 0.0868229C95.1992 0.114453 95.1566 0.148398 95.1195 0.189448L95.0484 0.244707C94.9845 0.306282 94.9316 0.378909 94.8906 0.457851L93.1617 4.00235C93.0275 4.27075 92.7654 4.45232 92.467 4.48311L88.5436 5.05228C88.2176 5.10359 87.9476 5.33174 87.8418 5.64435C87.7329 5.95775 87.8158 6.30509 88.0542 6.53639L90.9048 9.29937C91.1092 9.50067 91.2032 9.78881 91.1566 10.0722L90.454 13.9562C90.3774 14.4259 90.6893 14.8711 91.1566 14.9595C91.3484 14.9903 91.5442 14.9595 91.7171 14.8727L95.2142 13.0404C95.2805 13.0041 95.3532 12.9804 95.4274 12.9694H95.4544Z" fill="#FFB23E"/>
</svg>
