<svg width="160" height="46" viewBox="0 0 160 46" fill="none" xmlns="http://www.w3.org/2000/svg">
<path d="M38.8874 41.4761C35.2609 42.3767 31.6467 43.2742 27.9456 44.1933C27.9456 31.3637 27.9456 18.6031 27.9456 5.6759C28.1908 5.90071 28.3489 6.01796 28.4733 6.16385C29.7135 7.61797 31.1387 8.59642 33.1925 8.16694C33.8427 8.031 34.1697 8.3474 34.2731 9.06119C35.8253 19.7758 37.4046 30.4864 38.9752 41.1983C38.9807 41.236 38.9513 41.2789 38.8874 41.4761Z" fill="#BDC7D5"/>
<path d="M104.206 36.3434C103.698 39.061 103.2 41.7227 102.704 44.3764C100.869 44.3764 99.1322 44.3764 97.3467 44.3764C98.9171 35.3498 100.937 26.4563 102.232 17.4106C103.805 17.4106 105.363 17.4106 106.947 17.4106C107.016 18.3443 106.625 19.198 106.825 20.1747C107.415 19.6146 107.924 19.0641 108.5 18.5954C110.306 17.1261 112.347 16.5802 114.574 17.4052C116.781 18.2232 117.74 20.1028 117.95 22.2666C118.402 26.9385 117.222 31.1606 113.737 34.4593C111.046 37.0063 107.851 37.67 104.206 36.3434ZM112.388 24.5707C112.388 24.316 112.404 24.0601 112.385 23.8067C112.314 22.8361 112.071 21.9039 111.098 21.49C110.108 21.0686 109.173 21.39 108.381 22.0685C107.489 22.8325 106.913 23.8226 106.535 24.9192C105.798 27.0558 105.594 29.3062 105.159 31.5078C105.032 32.153 105.424 32.325 105.858 32.5199C107.213 33.1283 108.753 32.7673 109.869 31.4823C111.584 29.5092 112.243 27.1274 112.388 24.5707Z" fill="#BDC7D5"/>
<path d="M65.459 36.7064C63.5521 36.7064 61.816 36.7064 60.0378 36.7064C61.7892 27.5575 63.5294 18.4668 65.2888 9.27637C67.0698 9.27637 68.8719 9.27637 70.7155 9.27637C70.0742 12.5937 69.4352 15.8998 68.7235 19.5818C70.2434 18.293 71.4913 17.3263 73.1217 16.9955C76.5193 16.3063 78.8535 18.0652 78.9116 21.5401C78.9632 24.6241 78.044 27.5838 77.5475 30.5966C77.2104 32.6426 76.775 34.6725 76.3817 36.719C74.5676 36.719 72.8315 36.719 70.9705 36.719C71.5501 33.5877 72.1327 30.5182 72.6805 27.4424C72.911 26.1486 73.1345 24.8467 73.2346 23.5388C73.2989 22.697 73.1903 21.7949 72.2413 21.3789C71.3419 20.9847 70.5671 21.348 69.8996 21.9265C68.1948 23.404 67.5915 25.4319 67.188 27.5439C66.6073 30.5843 66.0395 33.6273 65.459 36.7064ZM68.8594 19.409C68.831 19.4405 68.7825 19.4705 68.7813 19.5021C68.7803 19.5337 68.8266 19.5669 68.8523 19.5994C68.8821 19.5706 68.9333 19.5433 68.9354 19.5127C68.9375 19.4821 68.8902 19.4482 68.8594 19.409Z" fill="#BDC7D5"/>
<path d="M149.304 30.1519C151.029 25.8556 152.7 21.6218 154.333 17.3976C156.217 17.3976 158.03 17.3976 160 17.3976C158.04 21.5947 156.124 25.6906 154.213 29.7884C152.453 33.562 150.587 37.2705 147.931 40.5221C146.257 42.5724 144.257 44.1554 141.732 45.0275C141.489 45.1114 141.263 45.2305 140.886 45.0778C140.429 43.678 139.947 42.2034 139.439 40.6467C141.545 39.8729 143.337 38.7186 144.721 36.9788C145.419 36.1005 145.681 35.2292 145.448 34.0498C144.363 28.5542 143.388 23.0368 142.357 17.4362C144.221 17.4362 146.056 17.4362 147.981 17.4362C148.421 21.6673 148.862 25.9096 149.304 30.1519Z" fill="#BDC7D5"/>
<path d="M98.5692 25.463C98.4366 28.4091 97.3481 31.7298 94.561 34.3003C92.041 36.6244 89.0262 37.3876 85.7067 36.6695C82.4978 35.9753 80.48 33.3927 80.3784 29.642C80.2719 25.7075 81.5105 22.1913 84.4743 19.4529C86.3932 17.6801 88.7144 16.8353 91.321 16.8432C95.7733 16.8568 98.7452 20.0899 98.5692 25.463ZM93.0136 25.1531C93.06 22.7212 92.4973 21.5584 91.3291 21.1835C89.9231 20.7324 88.6316 21.3607 87.5854 23.0953C86.3221 25.1899 85.853 27.4997 85.9899 29.9187C86.0575 31.1113 86.4882 32.1892 87.7432 32.6302C88.947 33.0531 90.0678 32.5872 91.014 31.2687C92.4216 29.3071 92.874 27.0376 93.0136 25.1531Z" fill="#BDC7D5"/>
<path d="M131.28 21.4381C130.409 21.4381 129.649 21.4381 128.765 21.4381C129.026 20.0479 129.271 18.7409 129.53 17.3644C130.338 17.3644 131.138 17.3644 132.006 17.3644C132.607 14.0304 133.537 10.9026 136.818 9.25769C138.954 8.18668 141.203 8.13375 143.613 8.80311C143.266 10.231 142.938 11.5767 142.614 12.9072C138.749 13.0315 138.023 13.6569 137.481 17.3641C138.667 17.3641 139.842 17.3641 141.181 17.3641C140.931 18.789 140.702 20.0948 140.46 21.4713C139.22 21.4713 138.038 21.4713 136.734 21.4713C135.77 26.5959 134.817 31.6651 133.862 36.746C132.053 36.746 130.319 36.746 128.434 36.746C129.383 31.6423 130.317 26.6187 131.28 21.4381Z" fill="#BDC7D5"/>
<path d="M45.1484 35.6323C45.6424 34.2338 46.075 33.0091 46.5289 31.724C47.8359 32.2897 49.0713 32.7016 50.3819 32.8423C51.7518 32.9894 52.8993 32.4973 53.1741 31.5829C53.5488 30.3364 52.858 29.5662 51.9102 28.9386C51.2023 28.4697 50.4538 28.0552 49.7815 27.5404C46.7417 25.2127 46.6772 21.0037 49.7498 18.7102C52.9346 16.333 56.4362 16.4878 60.1096 17.7241C59.6875 19.0534 59.3056 20.2565 58.9045 21.5199C57.946 21.3252 57.0157 21.1004 56.073 20.9571C55.4442 20.8616 54.8053 20.8962 54.1894 21.1423C52.7786 21.7062 52.4861 23.0626 53.6512 24.0348C54.3619 24.6279 55.2224 25.0379 55.9913 25.5654C57.8463 26.8376 59.1286 28.4366 58.8829 30.8603C58.6272 33.3834 57.2907 35.1442 54.9717 36.0764C51.691 37.3955 48.4445 37.1806 45.1484 35.6323Z" fill="#BDC7D5"/>
<path d="M123.707 36.7022C121.794 36.7022 120.058 36.7022 118.274 36.7022C119.491 30.2617 120.695 23.8847 121.915 17.4275C123.701 17.4275 125.509 17.4275 127.386 17.4275C126.158 23.8603 124.936 30.2636 123.707 36.7022Z" fill="#BDC7D5"/>
<path d="M128.528 11.9942C128.534 13.9188 127.153 15.3399 125.292 15.3234C123.824 15.3104 122.737 14.0736 122.74 12.4193C122.742 10.6533 124.113 9.20168 125.802 9.1769C127.447 9.15276 128.522 10.2633 128.528 11.9942Z" fill="#BDC7D5"/>
<path d="M68.8593 19.4092C68.8902 19.4483 68.9374 19.4822 68.9353 19.5128C68.9332 19.5434 68.8819 19.5707 68.8522 19.5995C68.8267 19.567 68.7802 19.5338 68.7813 19.5022C68.7824 19.4706 68.8309 19.4406 68.8593 19.4092Z" fill="#FEFEFE"/>
<path d="M25.3135 5.52199C24.4073 3.23145 23.2814 1.27294 20.4858 1.23605C20.3783 1.23525 20.2701 1.12136 20.1642 1.0564C17.7271 -0.448971 16.1857 -0.367166 13.9411 1.44137C12.3308 2.73741 11.3187 4.44569 10.4189 6.24781C10.4021 6.28069 10.3852 6.31357 10.3692 6.34646C10.3684 6.34726 10.3684 6.34886 10.3676 6.34967C10.2609 6.59749 9.96583 7.30245 9.67473 8.14216C9.45499 8.77815 9.23766 9.49114 9.10855 10.1416C8.97943 10.3437 8.81183 10.5209 8.58888 10.6637C7.51828 11.3478 6.13892 11.5836 4.86703 11.9076C3.84775 12.1666 3.44839 12.7104 3.32088 13.7602C2.64083 19.3711 1.87898 24.9715 1.15241 30.5768C0.765069 33.5635 0.392955 36.5517 0 39.6451C9.04278 41.201 18.0022 42.7425 26.988 44.2887V5.11858C26.3817 5.26455 25.8653 5.38886 25.3135 5.52199ZM20.3398 6.60952C20.3767 7.04822 20.1161 7.21744 19.7713 7.32331C18.5282 7.70586 17.2828 8.0812 15.7968 8.53274C16.602 6.17002 17.4913 4.19226 19.5684 2.95716C20.2556 4.15216 20.2372 5.39207 20.3398 6.60952ZM18.574 1.75335C16.1649 3.47125 14.9555 5.85563 14.33 8.58406C14.237 8.98667 13.9427 9.09013 13.6059 9.18958C12.6347 9.47831 11.6676 9.78387 10.5913 10.1159C11.3548 5.03918 15.3437 0.814195 18.574 1.75335ZM14.3878 22.6778C15.3974 23.3803 16.4472 24.0324 17.4031 24.8007C19.764 26.6991 20.4601 29.9247 19.2163 32.897C18.0952 35.5757 15.6332 36.9207 12.5256 36.6408C10.7886 36.4844 9.2176 35.9559 7.79815 34.9493C7.34585 34.6285 7.10207 34.3117 7.30416 33.6797C7.62093 32.6877 7.80378 31.6539 8.06681 30.5375C9.18794 31.1671 10.1904 31.8071 11.358 32.0605C12.3292 32.2714 13.2626 32.2562 13.8168 31.2657C14.3541 30.3041 13.9796 29.4323 13.3116 28.7097C12.856 28.2165 12.2923 27.8155 11.7461 27.4153C7.51506 24.3187 7.5672 18.5546 11.9194 15.5535C14.5081 13.7691 17.3807 13.433 20.582 14.2302C20.1081 16.0323 19.679 17.6596 19.2267 19.3783C17.9605 18.9388 16.7222 18.7086 15.452 18.8907C14.4856 19.0294 13.6171 19.3863 13.3284 20.4338C13.0469 21.4523 13.6027 22.1316 14.3878 22.6778ZM21.8243 6.62395C21.7465 5.34796 21.5973 4.14093 21.1474 2.74463C22.7866 3.34213 23.3528 4.54915 23.8804 5.92219C23.2469 6.31037 22.5613 6.42505 21.8243 6.62395Z" fill="#BDC7D5"/>
</svg>
