<svg width="160" height="41" viewBox="0 0 160 41" fill="none" xmlns="http://www.w3.org/2000/svg">
<path fill-rule="evenodd" clip-rule="evenodd" d="M51.187 31.9423L53.1838 27.293C55.3406 28.909 58.2142 29.7491 61.0494 29.7491C63.1422 29.7491 64.467 28.9411 64.467 27.7162C64.435 24.2918 51.9294 26.9724 51.8334 18.3856C51.8014 14.0249 55.667 10.6646 61.1454 10.6646C64.403 10.6646 67.6542 11.4726 69.9774 13.3131L68.1086 18.0586C65.9838 16.699 63.3406 15.7307 60.8254 15.7307C59.1166 15.7307 57.9902 16.5387 57.9902 17.5712C58.0222 20.9315 70.6238 19.091 70.7518 27.293C70.7518 31.7499 66.9822 34.8858 61.5678 34.8858C57.5998 34.8793 53.9582 33.9431 51.187 31.9423ZM127.865 25.6128C126.867 27.3571 124.998 28.5499 122.835 28.5499C119.641 28.5499 117.069 25.9655 117.069 22.772C117.069 19.5784 119.648 16.994 122.835 16.994C124.992 16.994 126.867 18.1868 127.865 19.9311L133.376 16.8658C131.315 13.1848 127.347 10.6646 122.835 10.6646C116.16 10.6646 110.745 16.0898 110.745 22.7784C110.745 29.4669 116.16 34.8922 122.835 34.8922C127.379 34.8922 131.315 32.404 133.376 28.691L127.865 25.6128ZM73.523 0.615723H80.4222V34.4305H73.523V0.615723ZM136.083 0.615723V34.4305H142.982V24.2854L151.168 34.4305H160L149.587 22.3808L159.225 11.1391H150.777L142.976 20.4698V0.615723H136.083Z" fill="#BDC7D5"/>
<path d="M100.922 25.6767C99.9232 27.3248 97.8624 28.5497 95.5392 28.5497C92.3456 28.5497 89.7728 25.9653 89.7728 22.7717C89.7728 19.5782 92.352 16.9938 95.5392 16.9938C97.8624 16.9938 99.9232 18.2828 100.922 19.9629V25.6767ZM100.922 11.1453V13.89C99.7952 11.9854 96.992 10.658 94.0544 10.658C87.9936 10.658 83.2256 16.0191 83.2256 22.7397C83.2256 29.4603 87.9936 34.8855 94.0544 34.8855C96.9856 34.8855 99.7888 33.5645 100.922 31.6535V34.3982H107.821V11.1453H100.922Z" fill="#BDC7D5"/>
<path fill-rule="evenodd" clip-rule="evenodd" d="M8.54423 25.6448C8.54423 28.0047 6.64343 29.9093 4.28823 29.9093C1.93303 29.9093 0.0322266 27.9983 0.0322266 25.6448C0.0322266 23.2913 1.93303 21.3802 4.28823 21.3802H8.54423V25.6448ZM10.669 25.6448C10.669 23.2849 12.5698 21.3802 14.925 21.3802C17.2802 21.3802 19.181 23.2849 19.181 25.6448V36.3028C19.181 38.6628 17.2802 40.5674 14.925 40.5674C12.5698 40.5674 10.669 38.6628 10.669 36.3028V25.6448Z" fill="#BDC7D5"/>
<path fill-rule="evenodd" clip-rule="evenodd" d="M14.9248 8.52903C12.5696 8.52903 10.6688 6.62443 10.6688 4.26452C10.6688 1.9046 12.5696 0 14.9248 0C17.28 0 19.1808 1.9046 19.1808 4.26452V8.52903H14.9248ZM14.9248 10.6901C17.28 10.6901 19.1808 12.5947 19.1808 14.9547C19.1808 17.3146 17.28 19.2192 14.9248 19.2192H4.256C1.9008 19.2192 0 17.3082 0 14.9547C0 12.6012 1.9008 10.6901 4.256 10.6901H14.9248Z" fill="#BDC7D5"/>
<path fill-rule="evenodd" clip-rule="evenodd" d="M31.9742 14.9547C31.9742 12.5947 33.875 10.6901 36.2302 10.6901C38.5854 10.6901 40.4862 12.5947 40.4862 14.9547C40.4862 17.3146 38.5854 19.2192 36.2302 19.2192H31.9742V14.9547ZM29.8494 14.9547C29.8494 17.3146 27.9486 19.2192 25.5934 19.2192C23.2382 19.2192 21.3374 17.3146 21.3374 14.9547V4.26452C21.3374 1.9046 23.2382 0 25.5934 0C27.9486 0 29.8494 1.9046 29.8494 4.26452V14.9547Z" fill="#BDC7D5"/>
<path fill-rule="evenodd" clip-rule="evenodd" d="M25.5934 32.0383C27.9486 32.0383 29.8494 33.9429 29.8494 36.3028C29.8494 38.6628 27.9486 40.5674 25.5934 40.5674C23.2382 40.5674 21.3374 38.6628 21.3374 36.3028V32.0383H25.5934ZM25.5934 29.9093C23.2382 29.9093 21.3374 28.0047 21.3374 25.6448C21.3374 23.2849 23.2382 21.3802 25.5934 21.3802H36.2622C38.6174 21.3802 40.5182 23.2849 40.5182 25.6448C40.5182 28.0047 38.6174 29.9093 36.2622 29.9093H25.5934Z" fill="#BDC7D5"/>
</svg>
