<svg width="32" height="25" viewBox="0 0 32 25" fill="none" xmlns="http://www.w3.org/2000/svg">
<path opacity="0.2" d="M0 24.9998V18.1816C0 16.1693 0.378788 14.0505 1.13636 11.8251C1.89394 9.59972 2.94744 7.46904 4.29688 5.43306C5.64631 3.39707 7.23248 1.65702 9.0554 0.212891L14.3111 3.97709C12.867 6.0841 11.6359 8.2858 10.6179 10.5822C9.59991 12.8786 9.09091 15.3762 9.09091 18.0751V24.9998H0ZM17.1108 24.9998V18.1816C17.1108 16.1693 17.4896 14.0505 18.2472 11.8251C19.0047 9.59972 20.0582 7.46904 21.4077 5.43306C22.7571 3.39707 24.3433 1.65702 26.1662 0.212891L31.4219 3.97709C29.9777 6.0841 28.7467 8.2858 27.7287 10.5822C26.7107 12.8786 26.2017 15.3762 26.2017 18.0751V24.9998H17.1108Z" fill="#F6851F"/>
</svg>
