<svg width="53" height="52" viewBox="0 0 53 52" fill="none" xmlns="http://www.w3.org/2000/svg">
<path d="M46.0606 24.7373C46.0606 25.8419 46.956 26.7373 48.0606 26.7373C49.1652 26.7373 50.0606 25.8419 50.0606 24.7373H46.0606ZM25.3238 49.4742C26.4283 49.4742 27.3238 48.5787 27.3238 47.4742C27.3238 46.3696 26.4283 45.4742 25.3238 45.4742V49.4742ZM43.008 50.0005L42.2851 51.8653C42.7499 52.0454 43.2652 52.0456 43.73 51.8656L43.008 50.0005ZM43.008 36.9066L41.2962 37.9409C41.6584 38.5403 42.3077 38.9066 43.008 38.9066C43.7083 38.9066 44.3576 38.5403 44.7197 37.9409L43.008 36.9066ZM50.0606 24.7373C50.0606 11.0757 38.9854 0.000488281 25.3238 0.000488281V4.00049C36.7762 4.00049 46.0606 13.2848 46.0606 24.7373H50.0606ZM25.3238 0.000488281C11.6621 0.000488281 0.586914 11.0757 0.586914 24.7373H4.58691C4.58691 13.2848 13.8713 4.00049 25.3238 4.00049V0.000488281ZM0.586914 24.7373C0.586914 38.399 11.6621 49.4742 25.3238 49.4742V45.4742C13.8713 45.4742 4.58691 36.1898 4.58691 24.7373H0.586914ZM39.5974 32.8426C35.9152 32.8426 33.429 36.2113 33.429 39.7007H37.429C37.429 37.8242 38.6767 36.8426 39.5974 36.8426V32.8426ZM33.429 39.7007C33.429 42.7891 34.9757 45.5529 36.6998 47.5815C38.4185 49.6038 40.5724 51.2014 42.2851 51.8653L43.7308 48.1357C42.7909 47.7714 41.1553 46.6474 39.7477 44.9912C38.3455 43.3412 37.429 41.4691 37.429 39.7007H33.429ZM43.73 51.8656C45.4436 51.2022 47.5978 49.6038 49.3163 47.5814C51.0402 45.5525 52.5869 42.7885 52.5869 39.7007H48.5869C48.5869 41.4685 47.6705 43.3409 46.2681 44.9913C44.8603 46.6481 43.2249 47.7718 42.2859 48.1354L43.73 51.8656ZM52.5869 39.7007C52.5869 36.2117 50.1023 32.8426 46.4185 32.8426V36.8426C47.3401 36.8426 48.5869 37.8238 48.5869 39.7007H52.5869ZM46.4185 32.8426C44.1898 32.8426 42.3466 34.134 41.2962 35.8723L44.7197 37.9409C45.1776 37.1832 45.8278 36.8426 46.4185 36.8426V32.8426ZM44.7197 35.8723C43.6694 34.134 41.8261 32.8426 39.5974 32.8426V36.8426C40.1881 36.8426 40.8384 37.1832 41.2962 37.9409L44.7197 35.8723ZM25.3238 33.0531C27.5292 33.0531 29.6444 32.177 31.2039 30.6175L28.3755 27.7891C27.5661 28.5984 26.4684 29.0531 25.3238 29.0531V33.0531ZM31.2039 30.6175C32.7634 29.058 33.6395 26.9428 33.6395 24.7373H29.6395C29.6395 25.8819 29.1848 26.9797 28.3755 27.7891L31.2039 30.6175ZM33.6395 24.7373C33.6395 22.5318 32.7634 20.4167 31.2039 18.8572L28.3755 21.6856C29.1848 22.495 29.6395 23.5927 29.6395 24.7373H33.6395ZM31.2039 18.8572C29.6444 17.2977 27.5292 16.4215 25.3238 16.4215V20.4215C26.4684 20.4215 27.5661 20.8762 28.3755 21.6856L31.2039 18.8572ZM25.3238 16.4215C23.1183 16.4215 21.0031 17.2977 19.4436 18.8572L22.272 21.6856C23.0814 20.8762 24.1791 20.4215 25.3238 20.4215V16.4215ZM19.4436 18.8572C17.8841 20.4167 17.008 22.5318 17.008 24.7373H21.008C21.008 23.5927 21.4627 22.495 22.272 21.6856L19.4436 18.8572ZM17.008 24.7373C17.008 26.9428 17.8841 29.058 19.4436 30.6175L22.272 27.7891C21.4627 26.9797 21.008 25.8819 21.008 24.7373H17.008ZM19.4436 30.6175C21.0031 32.177 23.1183 33.0531 25.3238 33.0531V29.0531C24.1791 29.0531 23.0814 28.5984 22.272 27.7891L19.4436 30.6175Z" fill="#FA5C6D"/>
</svg>
